<?xml version="1.0" encoding="utf-8"?>
<!-- Generator: Adobe Illustrator 16.0.0, SVG Export Plug-In . SVG Version: 6.00 Build 0)  -->
<!DOCTYPE svg PUBLIC "-//W3C//DTD SVG 1.1//EN" "http://www.w3.org/Graphics/SVG/1.1/DTD/svg11.dtd">
<svg version="1.1" id="Layer_1" xmlns="http://www.w3.org/2000/svg" xmlns:xlink="http://www.w3.org/1999/xlink" x="0px" y="0px"
	 width="841.891px" height="595.281px" viewBox="0 0 841.891 595.281" enable-background="new 0 0 841.891 595.281"
	 xml:space="preserve">
<polygon fill="#002654" points="482.809,526.414 504.291,397.531 295.621,397.531 317.101,526.414 "/>
<polygon fill="#002654" points="295.621,397.531 317.101,526.414 331.831,526.414 314.033,397.531 "/>
<polygon fill="#002654" points="485.879,397.531 468.08,526.414 482.809,526.414 504.291,397.531 "/>
<polygon fill="#002654" points="498.153,550.962 301.759,550.962 295.621,526.414 504.291,526.414 "/>
<polygon fill="#002654" points="289.483,397.531 510.427,397.531 510.427,366.843 289.483,366.843 "/>
<polygon fill="#002654" points="271.072,397.531 289.483,397.531 289.483,366.843 271.072,366.843 "/>
<polygon fill="#002654" points="510.427,397.531 528.84,397.531 528.84,366.843 510.427,366.843 "/>
<path d="M498.153,557.101H301.759c-3.069,0-5.524-1.842-6.137-4.91l-6.137-24.551c-0.613-1.84,0-3.682,1.228-5.523
	c1.228-1.227,3.069-1.842,4.91-1.842h208.669c1.841,0,3.683,0.615,4.91,2.455c1.228,1.229,1.841,3.684,1.228,5.525l-6.138,24.549
	C503.677,555.259,501.221,557.101,498.153,557.101z M306.669,544.826h186.574l3.069-12.275H303.6L306.669,544.826z"/>
<path d="M482.809,532.55H317.101c-3.069,0-5.523-2.455-6.137-4.91l-21.481-128.883c0-1.842,0-3.682,1.228-4.91
	c1.228-1.227,3.069-2.455,4.91-2.455h208.669c1.841,0,3.683,0.613,4.91,2.455c1.228,1.229,1.841,3.068,1.228,4.91L488.947,527.64
	C488.333,530.095,485.879,532.55,482.809,532.55z M322.011,520.275h155.274l19.64-116.607H302.986L322.011,520.275z"/>
<path d="M344.719,440.492h-42.961c-3.683,0-6.137-2.455-6.137-6.137c0-3.684,2.455-6.139,6.137-6.139h42.961
	c3.683,0,6.138,2.455,6.138,6.139C350.857,438.037,348.402,440.492,344.719,440.492z"/>
<path d="M375.406,440.492h-6.137c-3.683,0-6.137-2.455-6.137-6.137c0-3.684,2.454-6.139,6.137-6.139h6.137
	c3.683,0,6.138,2.455,6.138,6.139C381.544,438.037,379.089,440.492,375.406,440.492z"/>
<path d="M406.094,489.589h-6.138c-3.683,0-6.137-2.455-6.137-6.137c0-3.684,2.454-6.137,6.137-6.137h6.138
	c3.683,0,6.137,2.453,6.137,6.137C412.23,487.134,409.776,489.589,406.094,489.589z"/>
<path d="M490.175,489.589h-59.532c-3.683,0-6.138-2.455-6.138-6.137c0-3.684,2.455-6.137,6.138-6.137h59.532
	c3.682,0,6.137,2.453,6.137,6.137C496.312,487.134,493.243,489.589,490.175,489.589z"/>
<path fill="#FFBD57" d="M408.7,165.081c10.089-44.77,2.522-107.824-50.444-119.804C345.645,100.765,355.103,153.101,408.7,165.081"
	/>
<path fill="#FFBD57" d="M406.178,165.081c10.089-44.77,47.922-100.257,100.888-88.277
	C489.41,154.992,455.991,176.431,406.178,165.081"/>
<path fill="#E2A554" d="M487.518,76.804c-15.133,66.838-42.247,91.43-81.341,89.538l0,0c49.813,11.35,83.232-10.089,100.887-88.277
	C500.13,76.804,493.824,76.804,487.518,76.804"/>
<path fill="#FFBD57" d="M437.705,20.055c-20.178,12.611-37.202,26.482-46.661,46.661c19.548,25.853,22.069,66.838,15.134,98.365
	c6.936-31.527,27.113-67.468,56.119-81.972C462.297,64.194,453.469,44.646,437.705,20.055"/>
<g>
	<path fill="#00DA6C" d="M470.494,223.091c-5.044,0-58.011-3.783-58.011,49.184C474.277,274.166,470.494,229.396,470.494,223.091"/>
	<path fill="#00DA6C" d="M324.206,272.274c4.415,0,53.598-8.828,56.75,44.137C319.792,320.828,324.837,278.58,324.206,272.274"/>
	<path fill="#00DA6C" d="M286.373,165.081c6.306-1.261,72.514-15.764,88.277,50.444
		C295.832,235.071,288.265,172.648,286.373,165.081"/>
</g>
<path d="M406.178,171.387c-0.631,0-0.631,0-1.262,0c-27.113-6.306-45.399-22.7-54.228-47.922
	c-7.566-21.438-8.197-48.552-1.261-79.449c0.63-3.153,4.414-5.675,7.566-5.044c25.853,5.675,44.769,23.96,53.597,51.705
	c6.937,22.069,7.566,49.813,1.892,75.666C411.853,169.495,409.331,171.387,406.178,171.387z M360.778,52.843
	c-5.044,25.853-4.414,48.552,1.261,66.208c6.937,18.917,19.548,32.159,39.094,37.833c3.784-22.069,3.153-44.138-2.521-62.424
	C391.676,73.021,379.064,59.149,360.778,52.843z"/>
<path d="M429.509,173.908c-7.567,0-15.765-1.261-24.592-3.152c-1.892-0.631-3.153-1.262-3.784-2.522
	c-1.261-1.261-1.261-3.153-1.261-4.414c10.72-46.661,51.075-105.932,108.454-93.321c1.892,0.631,3.152,1.261,3.784,2.522
	c1.261,1.891,1.261,3.783,1.261,5.044c-8.827,39.725-22.069,66.208-40.985,81.341C460.405,169.495,445.902,173.908,429.509,173.908z
	 M413.744,160.037c21.439,3.784,37.203,0,50.444-10.719c15.133-12.611,26.482-34.681,34.681-68.1
	C456.622,76.804,424.464,121.573,413.744,160.037z"/>
<path d="M406.178,171.387c-0.631,0-0.631,0-1.262,0c-3.153-0.631-5.675-4.414-5.045-7.567l0,0l0,0
	c6.307-29.006,4.415-68.73-14.502-93.321c-1.261-1.892-1.892-4.414-0.63-6.306c11.349-22.7,30.896-37.833,49.183-49.183
	c3.152-1.891,6.937-1.261,8.827,1.892c18.286,28.375,25.853,47.291,25.853,66.208c0,2.522-1.261,4.414-3.152,5.675
	c-27.744,13.873-46.661,49.183-52.967,77.558C411.853,169.495,409.331,171.387,406.178,171.387z M397.98,66.085
	c11.35,16.395,16.395,36.572,17.655,56.75c9.459-17.025,22.7-33.419,40.355-43.508c-0.631-13.873-6.937-29.005-20.179-50.444
	C421.311,38.341,406.808,49.69,397.98,66.085z"/>
<path d="M418.789,376.316c-8.197-32.16-33.419-142.505-6.306-209.343c1.261-3.153-0.631-6.937-3.784-8.197
	c-3.152-1.262-6.936,0.631-8.196,3.783c-25.222,63.055-1.892,186.012,3.152,211.235c0.631,3.15,3.153,5.674,6.306,6.936
	C413.744,381.99,418.789,382.621,418.789,376.316z"/>
<path d="M403.655,347.941c-2.522,0-5.044-1.262-5.675-3.785c-4.414-9.457-10.089-13.873-20.808-22.699
	c-2.522-1.891-3.153-6.307-1.262-8.828s6.306-3.152,8.828-1.26c11.35,8.826,19.547,15.133,24.591,27.744
	c1.262,3.15,0,6.936-3.152,8.195C405.548,347.941,404.917,347.941,403.655,347.941z"/>
<path d="M416.266,278.58c-1.262,0-2.522,0-3.783,0c-3.153,0-6.306-3.153-6.306-6.306c0-17.026,5.044-30.267,15.133-40.355
	c11.35-10.72,28.375-16.395,48.553-15.765c3.152,0,6.936,3.153,6.936,6.306v0.631c0,6.306,0.631,25.222-13.872,39.094
	C452.208,273.535,437.075,278.58,416.266,278.58z M464.188,229.396c-14.503,0.63-26.482,4.415-34.05,11.98
	c-6.305,6.306-10.089,14.502-10.72,24.592c15.765-0.631,27.113-4.415,34.681-11.981
	C462.297,246.422,463.557,235.702,464.188,229.396z"/>
<path d="M372.129,323.349c-17.655,0-31.527-4.414-40.986-12.611c-13.241-12.612-13.241-30.266-13.241-36.572
	c0-0.631,0-1.261,0-1.892c0-3.783,2.521-6.306,5.675-6.937h1.261c18.917-1.891,34.051,1.262,45.399,10.721
	c10.089,8.827,16.395,22.068,17.025,39.724c0,3.152-2.522,6.305-5.676,6.936C378.433,322.718,375.281,323.349,372.129,323.349z
	 M330.511,277.949c0,6.306,1.892,15.765,9.459,22.699c6.937,6.938,18.917,10.09,34.049,9.459
	c-1.891-10.719-5.675-18.917-11.98-23.96C354.472,279.841,343.754,277.318,330.511,277.949z"/>
<path d="M380.956,322.718c-1.892,0-3.152-0.631-4.414-1.891c-6.937-7.568-13.872-13.242-22.069-18.287
	c-3.152-1.893-3.783-5.674-2.521-8.827c1.892-3.153,5.674-3.784,8.827-2.523c8.827,5.045,17.025,11.981,24.592,20.178
	c2.521,2.521,1.892,6.307-0.631,8.828C384.109,322.087,382.217,322.718,380.956,322.718z"/>
<path d="M412.483,278.58c-1.892,0-3.152-0.631-4.414-1.893c-2.521-2.521-2.521-6.306,0-8.827c1.892-1.892,3.784-3.784,5.675-5.675
	c5.045-5.044,9.459-9.458,14.503-13.873c2.522-1.891,6.937-1.891,8.827,0.631c1.892,2.522,1.892,6.936-0.631,8.827
	c-4.414,3.784-8.827,8.198-13.872,12.611c-1.892,1.893-3.783,3.784-5.675,5.675C415.636,277.949,414.375,278.58,412.483,278.58z"/>
<path d="M346.276,225.613c-14.503,0-26.482-3.153-36.572-9.459c-22.701-14.502-27.744-39.724-29.005-47.921l-0.631-1.891
	c0-1.261,0-3.153,0.631-4.414c0.631-1.262,2.521-2.522,3.783-2.522c29.005-6.936,81.972-3.152,95.843,54.857
	c0.631,3.153-1.261,6.937-4.414,7.567C365.823,224.352,355.734,225.613,346.276,225.613z M293.94,170.125
	c2.522,9.458,7.567,25.853,22.7,35.312c12.61,8.196,29.636,9.458,50.443,5.675C352.582,166.342,310.334,167.603,293.94,170.125z"/>
<path d="M374.65,221.831c-1.261,0-2.521,0-3.152-0.631c-3.153-1.891-6.937-3.784-10.089-6.306
	c-13.872-8.196-24.592-15.132-39.094-18.917c-3.152-0.63-5.675-4.414-4.414-7.567c0.631-3.153,4.414-5.674,7.566-4.414
	c16.395,4.414,28.375,11.35,42.877,20.177c3.153,1.891,6.306,3.783,9.459,5.675c3.152,1.891,3.783,5.675,1.892,8.827
	C379.064,220.569,376.542,221.831,374.65,221.831z"/>
<path d="M393.567,240.747c-1.892,0-3.783-0.63-5.044-2.522c-4.414-5.675-12.611-15.133-17.025-17.025
	c-3.153-1.891-4.414-5.675-2.522-8.196c1.262-3.153,5.675-4.415,8.197-2.523c8.197,4.415,18.917,17.656,20.808,20.808
	c1.892,2.523,1.892,6.937-1.262,8.829C396.089,240.117,394.828,240.747,393.567,240.747z"/>
<path d="M399.242,306.955L399.242,306.955c-3.784,0-5.675-2.523-5.675-5.676c0-6.936,9.458-27.113,15.764-33.418
	c2.522-2.522,5.675-2.522,8.197,0c2.521,2.521,2.521,5.675,0,8.196c-3.784,4.415-11.98,20.808-11.98,24.591
	C404.917,304.431,402.394,306.955,399.242,306.955z"/>
<path d="M528.84,403.667H271.072c-3.683,0-6.137-2.455-6.137-6.137v-30.688c0-3.682,2.455-6.137,6.137-6.137H528.84
	c3.683,0,6.137,2.455,6.137,6.137v30.688C534.977,401.212,532.522,403.667,528.84,403.667z M277.209,391.392h245.493V372.98H277.209
	V391.392z"/>
</svg>
