<?xml version="1.0" encoding="utf-8"?>
<!-- Generator: Adobe Illustrator 16.0.0, SVG Export Plug-In . SVG Version: 6.00 Build 0)  -->
<!DOCTYPE svg PUBLIC "-//W3C//DTD SVG 1.1//EN" "http://www.w3.org/Graphics/SVG/1.1/DTD/svg11.dtd">
<svg version="1.1" id="Capa_1" xmlns="http://www.w3.org/2000/svg" xmlns:xlink="http://www.w3.org/1999/xlink" x="0px" y="0px"
	 width="841.891px" height="595.281px" viewBox="0 0 841.891 595.281" enable-background="new 0 0 841.891 595.281"
	 xml:space="preserve">
<g>
	<g>
		<path fill="#FFFFFF" d="M660.453,51.157h-55.421V34.88c0-19.233-15.647-34.88-34.88-34.88s-34.88,15.647-34.88,34.88v16.277
			H339.946V34.88c0-19.233-15.647-34.88-34.88-34.88s-34.88,15.647-34.88,34.88v16.707c-0.988-0.273-2.023-0.43-3.1-0.43h-46.324
			c-32.055,0-58.133,26.079-58.133,58.133v198.038c0,6.422,5.206,11.627,11.626,11.627s11.627-5.205,11.627-11.627V170.911h419.149
			c6.42,0,11.627-5.206,11.627-11.626c0-6.421-5.207-11.627-11.627-11.627H185.883V109.29c0-19.232,15.646-34.879,34.88-34.879
			h46.324c1.076,0,2.111-0.158,3.1-0.43v14.963c0,19.232,15.647,34.879,34.88,34.879s34.88-15.647,34.88-34.879V74.41h195.326
			v14.533c0,19.232,15.647,34.879,34.88,34.879s34.88-15.647,34.88-34.879V74.41h55.421c19.232,0,34.879,15.647,34.879,34.879
			v441.804c0,11.541-9.391,20.934-20.935,20.934s-20.935-9.393-20.935-20.934v-30.078c0-6.422-5.207-11.627-11.627-11.627H506.594
			c-6.42,0-11.627,5.205-11.627,11.627s5.207,11.627,11.627,11.627H630.21v18.451c0,7.568,1.916,14.699,5.284,20.934H167.486
			c-11.54,0-20.929-9.389-20.929-20.928v-18.457H406.79c6.42,0,11.626-5.205,11.626-11.627s-5.206-11.627-11.626-11.627H290.622
			c20.316-17.496,33.217-43.377,33.217-72.229c0-52.57-42.769-95.338-95.338-95.338s-95.338,42.768-95.338,95.338
			c0,28.852,12.9,54.732,33.217,72.229h-31.448c-6.42,0-11.627,5.205-11.627,11.627v30.084c0,24.361,19.82,44.182,44.182,44.182
			h506.911c24.364,0,44.188-19.822,44.188-44.188V109.29C718.586,77.235,692.507,51.157,660.453,51.157z M316.693,88.943
			c0,6.411-5.216,11.626-11.627,11.626s-11.626-5.216-11.626-11.626V34.88c0-6.411,5.215-11.627,11.626-11.627
			s11.627,5.216,11.627,11.627V88.943z M581.779,88.943c0,6.411-5.216,11.626-11.627,11.626c-6.41,0-11.626-5.216-11.626-11.626
			V34.88c0-6.411,5.216-11.627,11.626-11.627c6.411,0,11.627,5.216,11.627,11.627V88.943z M156.416,437.16
			c0-39.748,32.337-72.086,72.085-72.086s72.085,32.338,72.085,72.086c0,39.746-32.337,72.084-72.085,72.084
			S156.416,476.906,156.416,437.16z"/>
	</g>
</g>
<g>
	<g>
		<path fill="#FFFFFF" d="M667.788,151.064c-2.162-2.163-5.161-3.407-8.219-3.407c-3.06,0-6.058,1.244-8.221,3.407
			c-2.162,2.163-3.406,5.162-3.406,8.22c0,3.058,1.243,6.057,3.406,8.22c2.164,2.163,5.161,3.407,8.221,3.407
			c3.058,0,6.057-1.244,8.219-3.407s3.407-5.162,3.407-8.22C671.195,156.226,669.951,153.227,667.788,151.064z"/>
	</g>
</g>
<g>
	<g>
		<path fill="#FFFFFF" d="M470.531,512.791c-2.161-2.164-5.161-3.396-8.219-3.396s-6.058,1.232-8.22,3.396
			c-2.163,2.174-3.406,5.162-3.406,8.219c0,3.07,1.242,6.059,3.406,8.232c2.162,2.162,5.162,3.395,8.22,3.395
			s6.058-1.232,8.219-3.395c2.163-2.174,3.408-5.174,3.408-8.232C473.939,517.953,472.695,514.964,470.531,512.791z"/>
	</g>
</g>
<g>
	<g>
		<path fill="#FFFFFF" d="M386.35,353.447c-24.361,0-44.182,19.82-44.182,44.182s19.82,44.182,44.182,44.182
			c24.36,0,44.181-19.82,44.181-44.182S410.711,353.447,386.35,353.447z M386.35,418.556c-11.54,0-20.928-9.389-20.928-20.928
			s9.388-20.928,20.928-20.928c11.539,0,20.928,9.389,20.928,20.928S397.889,418.556,386.35,418.556z"/>
	</g>
</g>
<g>
	<g>
		<path fill="#FFFFFF" d="M494.864,353.447c-24.36,0-44.181,19.82-44.181,44.182s19.82,44.182,44.181,44.182
			c24.361,0,44.182-19.82,44.182-44.182S519.225,353.447,494.864,353.447z M494.864,418.556c-11.539,0-20.928-9.389-20.928-20.928
			s9.389-20.928,20.928-20.928c11.54,0,20.929,9.389,20.929,20.928S506.404,418.556,494.864,418.556z"/>
	</g>
</g>
<g>
	<g>
		<path fill="#FFFFFF" d="M603.38,353.447c-24.361,0-44.181,19.82-44.181,44.182s19.819,44.182,44.181,44.182
			s44.181-19.82,44.181-44.182S627.741,353.447,603.38,353.447z M603.38,418.556c-11.539,0-20.928-9.389-20.928-20.928
			s9.389-20.928,20.928-20.928c11.54,0,20.928,9.389,20.928,20.928S614.92,418.556,603.38,418.556z"/>
	</g>
</g>
<g>
	<g>
		<path fill="#FFFFFF" d="M277.836,232.531c-24.361,0-44.181,19.82-44.181,44.181s19.819,44.182,44.181,44.182
			s44.181-19.82,44.181-44.182S302.197,232.531,277.836,232.531z M277.836,297.64c-11.539,0-20.928-9.389-20.928-20.928
			c0-11.54,9.389-20.928,20.928-20.928s20.928,9.388,20.928,20.928C298.763,288.251,289.375,297.64,277.836,297.64z"/>
	</g>
</g>
<g>
	<g>
		<path fill="#FFFFFF" d="M494.864,232.531c-24.36,0-44.181,19.82-44.181,44.181s19.82,44.182,44.181,44.182
			c24.361,0,44.182-19.82,44.182-44.182S519.225,232.531,494.864,232.531z M494.864,297.64c-11.539,0-20.928-9.389-20.928-20.928
			c0-11.54,9.389-20.928,20.928-20.928c11.54,0,20.929,9.388,20.929,20.928C515.793,288.251,506.404,297.64,494.864,297.64z"/>
	</g>
</g>
<g>
	<g>
		<path fill="#FFFFFF" d="M603.38,232.531c-24.361,0-44.181,19.82-44.181,44.181s19.819,44.182,44.181,44.182
			s44.181-19.82,44.181-44.182S627.741,232.531,603.38,232.531z M603.38,297.64c-11.539,0-20.928-9.389-20.928-20.928
			c0-11.54,9.389-20.928,20.928-20.928c11.54,0,20.928,9.388,20.928,20.928C624.307,288.251,614.92,297.64,603.38,297.64z"/>
	</g>
</g>
<g>
	<g>
		<path fill="#FFFFFF" d="M386.35,232.531c-24.361,0-44.182,19.82-44.182,44.181s19.82,44.182,44.182,44.182
			c24.36,0,44.181-19.82,44.181-44.182S410.711,232.531,386.35,232.531z M386.35,297.64c-11.54,0-20.928-9.389-20.928-20.928
			c0-11.54,9.388-20.928,20.928-20.928c11.539,0,20.928,9.388,20.928,20.928C407.278,288.251,397.889,297.64,386.35,297.64z"/>
	</g>
</g>
<g>
	<g>
		<path fill="#FFFFFF" d="M269.921,408.824c-4.542-4.541-11.901-4.541-16.443,0l-37.863,37.865l-12.939-12.939
			c-4.541-4.541-11.901-4.541-16.443,0c-4.54,4.539-4.54,11.902,0,16.443l21.161,21.158c2.182,2.18,5.138,3.406,8.222,3.406
			c3.083,0,6.04-1.227,8.221-3.406l46.086-46.084C274.461,420.726,274.461,413.365,269.921,408.824z"/>
	</g>
</g>
</svg>
