<?xml version="1.0" encoding="utf-8"?>
<!-- Generator: Adobe Illustrator 16.0.0, SVG Export Plug-In . SVG Version: 6.00 Build 0)  -->
<!DOCTYPE svg PUBLIC "-//W3C//DTD SVG 1.1//EN" "http://www.w3.org/Graphics/SVG/1.1/DTD/svg11.dtd">
<svg version="1.1" id="Layer_1" xmlns="http://www.w3.org/2000/svg" xmlns:xlink="http://www.w3.org/1999/xlink" x="0px" y="0px"
	 width="841.891px" height="595.281px" viewBox="0 0 841.891 595.281" enable-background="new 0 0 841.891 595.281"
	 xml:space="preserve">
<g>
	<g>
		<circle fill="#FFFFFF" cx="217.667" cy="463.744" r="11.627"/>
	</g>
</g>
<g>
	<g>
		<path fill="#FFFFFF" d="M659.522,108.069h-68.408c-15.442,0-29.624,5.504-40.687,14.652v-3.025V87.767
			c0-45.659-37.143-82.802-82.801-82.802H390.06c-6.422,0-11.627,5.207-11.627,11.627v31.93c0,45.658,37.144,82.801,82.801,82.801
			h65.94v40.686v31.368v45.805c-3.067-0.196-6.151-0.305-9.251-0.305c-30.556,0-59.769,9.42-84.476,27.24
			c-5.207,3.755-6.385,11.022-2.629,16.23c3.757,5.208,11.023,6.388,16.231,2.629c20.722-14.945,45.23-22.845,70.873-22.845
			c6.198,0,12.325,0.491,18.344,1.413c0.499,0.11,1.01,0.189,1.53,0.235c36.181,6.016,68.175,28.229,86.309,60.959
			c2.123,3.832,6.091,5.994,10.181,5.994c1.905,0,3.839-0.471,5.624-1.459c5.616-3.113,7.646-10.189,4.534-15.805
			c-20.119-36.313-54.563-61.753-94.019-70.871v-37.595h56.783c35.255,0,63.939-28.683,63.939-63.939v-31.369
			C671.149,113.275,665.943,108.069,659.522,108.069z M527.175,108.069h-65.94c-32.834,0-59.548-26.713-59.548-59.548V28.218h65.94
			c32.835,0,59.548,26.713,59.548,59.549V108.069L527.175,108.069z M647.895,151.065c0,22.434-18.251,40.686-40.686,40.686h-56.782
			v-19.742c0-22.434,18.252-40.686,40.687-40.686h56.781V151.065z"/>
	</g>
</g>
<g>
	<g>
		<path fill="#FFFFFF" d="M714.704,382.294c-10.147-22.982-37.102-33.42-60.083-23.277c-0.059,0.025-0.115,0.053-0.174,0.078
			l-75.964,35.031c-5.832,2.689-8.379,9.598-5.69,15.428c2.689,5.832,9.597,8.377,15.428,5.689l75.871-34.988
			c11.234-4.908,24.382,0.205,29.34,11.432c4.968,11.254-0.146,24.449-11.397,29.42L526.58,489.744
			c-24.633,10.877-52.592,10.246-76.709-1.738l-56.905-28.27c-30.322-15.064-65.478-15.859-96.447-2.186l-1.118,0.494l-42.529-96.32
			l59.045-26.07c28.127-12.418,59.514-13.42,88.376-2.822l114.432,42.023c10.44,3.836,16.005,15.514,12.405,26.035
			c-3.669,10.725-15.387,16.492-26.122,12.863l-88.49-29.93c-6.083-2.059-12.681,1.205-14.738,7.289
			c-2.059,6.082,1.205,12.68,7.288,14.738l88.49,29.93c4.633,1.568,9.353,2.313,13.997,2.313c18.252,0,35.355-11.49,41.577-29.672
			c7.658-22.387-4.18-47.236-26.389-55.393L408.31,311.005c-34.547-12.686-72.115-11.488-105.783,3.375l-59.425,26.238
			c-3.343-5.137-8.169-9.109-13.995-11.367c-7.336-2.842-15.341-2.658-22.509,0.508l-76.334,33.445
			c-4.228,1.854-6.96,6.033-6.96,10.65v204.834c0,4.037,2.096,7.787,5.534,9.904c1.863,1.145,3.975,1.723,6.093,1.723
			c1.793,0,3.589-0.414,5.241-1.248l148.192-74.863c7.047-3.205,12.459-8.936,15.26-16.166c2.333-6.023,2.626-12.496,0.898-18.604
			l1.386-0.611c24.635-10.877,52.593-10.242,76.71,1.74l56.905,28.27c30.321,15.064,65.476,15.861,96.447,2.184l155.455-68.637
			C714.409,432.232,724.85,405.277,714.704,382.294z M281.942,489.636c-0.599,1.545-1.763,2.766-3.278,3.434
			c-0.186,0.082-0.366,0.168-0.547,0.26l-131.56,66.459v-50.895l34.39-16.887c5.765-2.832,8.142-9.797,5.311-15.563
			c-2.831-5.764-9.8-8.143-15.561-5.311l-24.14,11.854V381.453l69.397-30.41c1.516-0.668,3.201-0.707,4.746-0.109
			s2.765,1.764,3.434,3.279l54.689,123.859c0.005,0.012,0.01,0.021,0.014,0.033l2.996,6.785
			C282.503,486.406,282.541,488.091,281.942,489.636z"/>
	</g>
</g>
</svg>
