<?xml version="1.0" encoding="utf-8"?>
<!-- Generator: Adobe Illustrator 16.0.0, SVG Export Plug-In . SVG Version: 6.00 Build 0)  -->
<!DOCTYPE svg PUBLIC "-//W3C//DTD SVG 1.1//EN" "http://www.w3.org/Graphics/SVG/1.1/DTD/svg11.dtd">
<svg version="1.1" id="Layer_1" xmlns="http://www.w3.org/2000/svg" xmlns:xlink="http://www.w3.org/1999/xlink" x="0px" y="0px"
	 width="480px" height="480px" viewBox="0 0 480 480" enable-background="new 0 0 480 480" xml:space="preserve">
<path fill="#FFFFFF" d="M88,448c2.426,0,4.723-1.105,6.238-3C97.601,440.84,176,342.465,176,296c0-48.602-39.398-88-88-88
	S0,247.398,0,296c0,46.465,78.398,144.801,81.762,149C83.277,446.895,85.574,448,88,448z M88,224c39.746,0.043,71.957,32.254,72,72
	c0,31.039-47.289,98.91-72,131.031C63.289,394.922,16,327.055,16,296C16.043,256.254,48.254,224.043,88,224z"/>
<path fill="#FFFFFF" d="M120,288c0-17.672-14.328-32-32-32s-32,14.328-32,32s14.328,32,32,32S120,305.672,120,288z M72,288
	c0-8.836,7.164-16,16-16s16,7.164,16,16s-7.164,16-16,16S72,296.836,72,288z"/>
<path fill="#FFFFFF" d="M416,168c2.332,0,4.543-1.016,6.063-2.785C428,158.328,480,96.945,480,64c0-35.348-28.652-64-64-64
	s-64,28.652-64,64c0,32.945,52,94.328,57.938,101.215C411.457,166.984,413.668,168,416,168z M416,16c26.5,0.027,47.973,21.5,48,48
	c0,20.273-30.543,62.047-48,83.512C398.535,126.047,368,84.313,368,64C368.027,37.5,389.5,16.027,416,16z"/>
<path fill="#FFFFFF" d="M440,56c0-13.254-10.746-24-24-24s-24,10.746-24,24s10.746,24,24,24S440,69.254,440,56z M408,56
	c0-4.418,3.582-8,8-8s8,3.582,8,8s-3.582,8-8,8S408,60.418,408,56z"/>
<path fill="#FFFFFF" d="M408,200h8c4.418,0,8-3.582,8-8s-3.582-8-8-8h-8c-4.418,0-8,3.582-8,8S403.582,200,408,200z"/>
<path fill="#FFFFFF" d="M304,248h16.176c4.418,0,8-3.582,8-8s-3.582-8-8-8h-16.305c-2.113,0.004-4.141,0.852-5.629,2.352
	s-2.32,3.535-2.305,5.648C295.965,244.43,299.57,248.004,304,248z"/>
<path fill="#FFFFFF" d="M393.687,240c0,4.418,3.582,8,8,8h16.297c4.418,0,8-3.582,8-8s-3.582-8-8-8h-16.297
	C397.269,232,393.687,235.582,393.687,240z"/>
<path fill="#FFFFFF" d="M359.097,200h16.301c4.418,0,8-3.582,8-8s-3.582-8-8-8h-16.301c-4.422,0-8,3.582-8,8
	S354.676,200,359.097,200z"/>
<path fill="#FFFFFF" d="M145.719,464h-16.305c-4.418,0-8,3.582-8,8s3.582,8,8,8h16.305c4.418,0,8-3.582,8-8S150.136,464,145.719,464
	z"/>
<path fill="#FFFFFF" d="M280.504,228.961c0.559,0,1.113-0.059,1.656-0.176c4.32-0.91,7.086-5.145,6.184-9.465
	c-0.227-1.094-0.34-2.203-0.344-3.32c-0.004-2.531,0.594-5.023,1.742-7.281c2.004-3.938,0.438-8.754-3.504-10.758
	c-3.938-2.004-8.754-0.438-10.758,3.504c-3.316,6.512-4.301,13.969-2.793,21.121C273.457,226.289,276.719,228.953,280.504,228.961z"
	/>
<path fill="#FFFFFF" d="M352.801,248h16.305c4.418,0,8-3.582,8-8s-3.582-8-8-8h-16.305c-4.418,0-8,3.582-8,8
	S348.383,248,352.801,248z"/>
<path fill="#FFFFFF" d="M310.191,200h16.305c4.418,0,8-3.582,8-8s-3.582-8-8-8h-16.305c-4.418,0-8,3.582-8,8
	S305.773,200,310.191,200z"/>
<path fill="#FFFFFF" d="M231.136,339.016c0.633,0.164,1.289,0.242,1.941,0.242c3.672-0.008,6.867-2.508,7.754-6.066
	c1.035-4.113,2.984-7.941,5.703-11.199c1.922-2.18,2.508-5.227,1.539-7.961c-0.969-2.738-3.348-4.734-6.211-5.219
	c-2.859-0.48-5.762,0.625-7.574,2.891c-4.285,5.113-7.355,11.129-8.977,17.602c-0.52,2.059-0.195,4.242,0.898,6.063
	C227.301,337.191,229.074,338.504,231.136,339.016z"/>
<path fill="#FFFFFF" d="M389.183,463.664c-1.719,0.227-3.449,0.34-5.184,0.336h-10.07c-4.422,0-8,3.582-8,8s3.578,8,8,8H384
	c2.406,0,4.813-0.156,7.199-0.465c4.383-0.566,7.477-4.578,6.914-8.961c-0.566-4.383-4.578-7.477-8.961-6.91H389.183z"/>
<path fill="#FFFFFF" d="M400.328,370.398c-5.293-1.602-10.797-2.41-16.328-2.398h-2.098c-4.418,0-8,3.582-8,8s3.582,8,8,8H384
	c3.953,0,7.887,0.582,11.672,1.727c0.754,0.234,1.539,0.352,2.328,0.352c3.965,0.004,7.336-2.898,7.922-6.82
	c0.582-3.926-1.797-7.684-5.594-8.832V370.398z"/>
<path fill="#FFFFFF" d="M383.265,312c4.418,0,8-3.582,8-8s-3.582-8-8-8h-16.297c-4.418,0-8,3.582-8,8s3.582,8,8,8H383.265z"/>
<path fill="#FFFFFF" d="M431.07,436.391c-4.023-1.813-8.758-0.023-10.574,4c-1.863,4.137-4.422,7.926-7.559,11.203
	c-2.055,2.051-2.836,5.051-2.043,7.84c0.793,2.793,3.035,4.938,5.855,5.602c2.824,0.668,5.789-0.246,7.746-2.387
	c4.398-4.586,7.984-9.895,10.594-15.688C436.894,442.934,435.097,438.203,431.07,436.391z"/>
<path fill="#FFFFFF" d="M472.969,273.406c-2.035-0.602-4.227-0.371-6.094,0.645c-1.863,1.016-3.25,2.73-3.852,4.766
	c-1.176,3.922-3.324,7.484-6.246,10.352c-3.16,3.094-3.215,8.16-0.121,11.32s8.16,3.211,11.32,0.121
	c4.875-4.777,8.453-10.715,10.398-17.258c0.605-2.035,0.371-4.227-0.641-6.094C476.719,275.395,475.004,274.008,472.969,273.406z"/>
<path fill="#FFFFFF" d="M463.84,258.641c3.16,0.004,6.023-1.855,7.313-4.738c1.285-2.883,0.758-6.254-1.352-8.605
	c-4.566-5.078-10.348-8.91-16.801-11.137c-4.18-1.438-8.73,0.789-10.168,4.969s0.789,8.73,4.969,10.168
	c3.875,1.332,7.344,3.633,10.078,6.688C459.398,257.676,461.566,258.641,463.84,258.641z"/>
<path fill="#FFFFFF" d="M349.304,368h-16.297c-4.418,0-8,3.582-8,8s3.582,8,8,8h16.297c4.418,0,8-3.582,8-8S353.722,368,349.304,368
	z"/>
<path fill="#FFFFFF" d="M432.168,296h-16.305c-4.418,0-8,3.582-8,8s3.582,8,8,8h16.305c4.418,0,8-3.582,8-8S436.586,296,432.168,296
	z"/>
<path fill="#FFFFFF" d="M194.617,464H178.32c-4.418,0-8,3.582-8,8s3.582,8,8,8h16.297c4.418,0,8-3.582,8-8S199.035,464,194.617,464z
	"/>
<path fill="#FFFFFF" d="M430.344,392.559c-2.496-3.652-7.48-4.59-11.137-2.094c-3.652,2.496-4.59,7.48-2.094,11.137
	c2.555,3.742,4.449,7.895,5.598,12.277c0.625,2.863,2.766,5.156,5.582,5.977c2.813,0.82,5.848,0.035,7.914-2.047
	c2.063-2.078,2.824-5.121,1.984-7.93C436.59,403.699,433.937,397.84,430.344,392.559z"/>
<path fill="#FFFFFF" d="M255.617,365.129c-3.801-1.895-7.125-4.613-9.738-7.961c-2.711-3.492-7.738-4.121-11.227-1.41
	c-3.492,2.707-4.121,7.734-1.414,11.227c4.098,5.258,9.324,9.527,15.297,12.488c3.941,1.84,8.633,0.191,10.559-3.711
	C261.019,371.863,259.472,367.137,255.617,365.129z"/>
<path fill="#FFFFFF" d="M243.519,464h-16.32c-4.418,0-8,3.582-8,8s3.582,8,8,8h16.32c4.418,0,8-3.582,8-8S247.937,464,243.519,464z"
	/>
<path fill="#FFFFFF" d="M341.328,464h-16.297c-4.418,0-8,3.582-8,8s3.582,8,8,8h16.297c4.418,0,8-3.582,8-8S345.746,464,341.328,464
	z"/>
<path fill="#FFFFFF" d="M285.465,312c4.418,0,8-3.582,8-8s-3.582-8-8-8h-16.297c-4.418,0-8,3.582-8,8s3.582,8,8,8H285.465z"/>
<path fill="#FFFFFF" d="M334.398,312c4.418,0,8-3.582,8-8s-3.582-8-8-8h-16.336c-4.418,0-8,3.582-8,8s3.582,8,8,8H334.398z"/>
<path fill="#FFFFFF" d="M300.406,368h-16.301c-4.418,0-8,3.582-8,8s3.582,8,8,8h16.301c4.422,0,8-3.582,8-8S304.828,368,300.406,368
	z"/>
<path fill="#FFFFFF" d="M292.433,464h-16.305c-4.418,0-8,3.582-8,8s3.582,8,8,8h16.305c4.418,0,8-3.582,8-8S296.851,464,292.433,464
	z"/>
<path fill="#FFFFFF" d="M96,464h-8c-4.418,0-8,3.582-8,8s3.582,8,8,8h8c4.418,0,8-3.582,8-8S100.418,464,96,464z"/>
</svg>
