<?xml version="1.0" encoding="utf-8"?>
<!-- Generator: Adobe Illustrator 16.0.0, SVG Export Plug-In . SVG Version: 6.00 Build 0)  -->
<!DOCTYPE svg PUBLIC "-//W3C//DTD SVG 1.1//EN" "http://www.w3.org/Graphics/SVG/1.1/DTD/svg11.dtd">
<svg version="1.1" id="Layer_1" xmlns="http://www.w3.org/2000/svg" xmlns:xlink="http://www.w3.org/1999/xlink" x="0px" y="0px"
	 width="841.891px" height="595.281px" viewBox="0 0 841.891 595.281" enable-background="new 0 0 841.891 595.281"
	 xml:space="preserve">
<g>
	<g>
		<path fill="#FFFFFF" d="M572.956,0.024c-0.659-0.018-1.317-0.023-1.974-0.024H191.09c-33.905,0.001-61.52,27.457-61.778,61.304
			c-0.002,0.069-0.002,0.139-0.002,0.208v490.211c0,24.018,19.54,43.557,43.556,43.557h316.277
			c24.018,0,43.556-19.539,43.556-43.557V188.42h71.528c15.869,0,28.781-12.91,28.781-28.779V62.825
			C633.009,29.104,606.068,0.934,572.956,0.024z M509.447,61.307c-0.001,0.068-0.001,0.137-0.001,0.206v490.211
			c0,11.195-9.106,20.303-20.302,20.303H172.865c-11.194,0-20.302-9.107-20.302-20.303V61.782c0-21.245,17.282-38.527,38.525-38.527
			h331.825C514.279,34.032,509.552,47.276,509.447,61.307z M609.754,159.644c0,3.046-2.479,5.525-5.524,5.525H532.7V61.782
			c0-10.491,4.143-20.3,11.664-27.618c7.233-7.038,16.697-10.885,26.765-10.909h0.099c0.372,0,0.727,0.006,1.091,0.015
			c20.643,0.566,37.436,18.312,37.436,39.556V159.644L609.754,159.644z"/>
	</g>
</g>
<g>
	<g>
		<path fill="#FFFFFF" d="M283.413,68.115c-50.688,0-91.928,41.237-91.928,91.926s41.238,91.929,91.928,91.929
			c50.688,0,91.927-41.238,91.927-91.928C375.339,109.354,334.1,68.115,283.413,68.115z M283.413,228.715
			c-37.867,0-68.674-30.807-68.674-68.673c0-37.867,30.807-68.673,68.674-68.673c37.866,0,68.673,30.807,68.673,68.673
			C352.086,197.908,321.279,228.715,283.413,228.715z"/>
	</g>
</g>
<g>
	<g>
		<path fill="#FFFFFF" d="M283.413,176.204c-8.912,0-16.161-7.25-16.161-16.161s7.25-16.162,16.161-16.162
			c6.421,0,11.626-5.206,11.626-11.626c0-6.42-5.205-11.626-11.626-11.626c-21.735,0-39.416,17.683-39.416,39.415
			c0,21.733,17.682,39.415,39.416,39.415c6.421,0,11.626-5.206,11.626-11.626C295.039,181.41,289.834,176.204,283.413,176.204z"/>
	</g>
</g>
<g>
	<g>
		<path fill="#FFFFFF" d="M449.459,297.195H203.111c-6.421,0-11.626,5.207-11.626,11.627s5.205,11.627,11.626,11.627h246.348
			c6.422,0,11.627-5.207,11.627-11.627C461.087,302.402,455.881,297.195,449.459,297.195z"/>
	</g>
</g>
<g>
	<g>
		<path fill="#FFFFFF" d="M449.459,346.494H203.111c-6.421,0-11.626,5.207-11.626,11.627s5.205,11.627,11.626,11.627h246.348
			c6.422,0,11.627-5.207,11.627-11.627C461.087,351.701,455.881,346.494,449.459,346.494z"/>
	</g>
</g>
<g>
	<g>
		<path fill="#FFFFFF" d="M331.005,398.542H203.111c-6.421,0-11.626,5.207-11.626,11.627s5.205,11.627,11.626,11.627h127.894
			c6.421,0,11.626-5.207,11.626-11.627C342.631,403.751,337.426,398.542,331.005,398.542z"/>
	</g>
</g>
<g>
	<g>
		<path fill="#FFFFFF" d="M679.96,425.58v-34.953l19.635-38.418c1.68-3.289,1.698-7.182,0.049-10.488l-51.16-102.431
			c-1.969-3.941-5.996-6.431-10.401-6.431c-0.006,0-0.014,0-0.02,0c-4.412,0.008-8.441,2.512-10.398,6.468l-51.163,103.32
			c-1.648,3.33-1.606,7.248,0.114,10.543l19.604,37.525v34.863c-18.634,4.098-32.623,20.73-32.623,40.574
			c0,0.385,0.021,0.768,0.058,1.15l11.696,117.5c0.592,5.945,5.595,10.477,11.569,10.477h102.321
			c5.975,0,10.977-4.529,11.569-10.475l11.714-117.5c0.038-0.383,0.058-0.768,0.058-1.152
			C712.582,446.308,698.592,429.677,679.96,425.58z M626.451,294.167v48.572c0,6.42,5.205,11.627,11.626,11.627
			c6.422,0,11.627-5.207,11.627-11.627v-48.956l26.509,53.073l-15.006,29.361h-46.329l-14.916-28.555L626.451,294.167z
			 M656.704,399.47v25.133H619.47V399.47H656.704z M678.715,572.025h-81.269l-10.589-106.381c0.27-9.854,8.369-17.787,18.287-17.787
			h2.7h60.488h2.7c9.917,0,18.018,7.932,18.287,17.787L678.715,572.025z"/>
	</g>
</g>
<g>
	<g>
		<path fill="#FFFFFF" d="M333.128,514.255c-3.088-5.631-10.155-7.688-15.784-4.602c-2.543,1.393-5.717,1.047-7.898-0.863
			c-8.277-7.256-19.849-9.43-30.197-5.674l-19.658,7.139c-1.339,0.32-2.711-0.154-3.793-1.318l-2.579-2.783
			c-7.26-7.83-17.985-10.76-27.989-7.646l-22.957,7.143c-6.131,1.906-9.557,8.422-7.649,14.555c1.906,6.131,8.42,9.555,14.556,7.648
			l22.958-7.141c1.413-0.443,2.884,0.016,4.03,1.252l2.58,2.783c7.19,7.754,17.828,10.713,27.762,7.715
			c0.206-0.063,0.41-0.129,0.611-0.203l20.063-7.285c2.378-0.861,5.032-0.365,6.934,1.303c5.618,4.922,12.746,7.465,19.927,7.465
			c4.964,0,9.954-1.215,14.482-3.701C334.155,526.953,336.216,519.886,333.128,514.255z"/>
	</g>
</g>
<g>
	<g>
		<circle fill="#FFFFFF" cx="356.077" cy="518.039" r="11.627"/>
	</g>
</g>
</svg>
