<?xml version="1.0" encoding="utf-8"?>
<!-- Generator: Adobe Illustrator 16.0.0, SVG Export Plug-In . SVG Version: 6.00 Build 0)  -->
<!DOCTYPE svg PUBLIC "-//W3C//DTD SVG 1.1//EN" "http://www.w3.org/Graphics/SVG/1.1/DTD/svg11.dtd">
<svg version="1.1" id="Capa_1" xmlns="http://www.w3.org/2000/svg" xmlns:xlink="http://www.w3.org/1999/xlink" x="0px" y="0px"
	 width="841.891px" height="595.281px" viewBox="0 0 841.891 595.281" enable-background="new 0 0 841.891 595.281"
	 xml:space="preserve">
<g>
	<g>
		<path fill="#FFFFFF" d="M537.237,169.751c-6.417,0-11.626,5.208-11.626,11.626s5.209,11.626,11.626,11.626
			c6.418,0,11.627-5.208,11.627-11.626S543.654,169.751,537.237,169.751z"/>
	</g>
</g>
<g>
	<g>
		<path fill="#FFFFFF" d="M587.145,190.747c-5.028-3.991-12.341-3.152-16.335,1.876c-3.992,5.03-3.152,12.343,1.878,16.335
			c35.07,27.839,42.632,83.951,35.106,129.107c-1.554,9.277-3.504,18.623-5.799,27.775c-1.561,6.229,2.223,12.543,8.452,14.105
			c0.948,0.238,1.898,0.352,2.834,0.352c5.207,0,9.946-3.523,11.269-8.803c2.444-9.748,4.523-19.705,6.179-29.598
			C639.675,288.232,629.725,224.55,587.145,190.747z"/>
	</g>
</g>
<g>
	<g>
		<path fill="#FFFFFF" d="M525.611,123.245c-23.784,0-47.475,5.639-69.525,16.392c1.801-30.26,14.438-58.465,36.055-80.092
			c13.599-13.598,13.599-35.724,0-49.322c-13.63-13.628-35.69-13.633-49.323,0c-34.846,34.845-54.763,80.628-56.574,129.602
			c-22.161-10.877-45.989-16.58-69.908-16.58c-104.181,0-171.36,104.068-150.986,226.301c9.805,58.824,33.423,119.305,64.798,165.93
			c34.626,51.463,74.526,79.805,112.348,79.805c20.297,0,39.953-6.648,58.421-19.76c12.185-8.648,27.933-8.646,40.115-0.002
			c18.468,13.113,38.123,19.762,58.421,19.762c37.821,0,77.721-28.342,112.349-79.803c31.374-46.627,54.993-107.105,64.798-165.93
			C696.469,230.321,632.025,123.245,525.611,123.245z M409.345,147.161c0-45.515,17.727-88.308,49.914-120.496
			c4.542-4.543,11.894-4.543,16.438,0c4.53,4.532,4.53,11.907-0.003,16.44c-27.791,27.804-43.096,64.759-43.096,104.056v6.315
			c-3.954,2.764-7.841,5.697-11.627,8.807c-3.785-3.11-7.672-6.043-11.627-8.807L409.345,147.161L409.345,147.161z M653.66,345.726
			c-19.742,118.438-93.244,226.301-154.209,226.301c-15.377,0-30.504-5.203-44.962-15.469
			c-10.181-7.225-21.848-10.838-33.517-10.838c-11.668,0-23.338,3.613-33.52,10.84c-14.455,10.264-29.582,15.467-44.959,15.467
			c-60.967,0-134.468-107.863-154.209-226.301c-17.702-106.204,37.313-199.228,128.049-199.228c25.973,0,51.929,7.921,75.064,22.908
			c0.001,0,0.002,0.001,0.004,0.002c7.542,4.882,14.849,10.545,21.72,16.835c4.442,4.068,11.26,4.068,15.702,0
			c6.869-6.29,14.177-11.955,21.724-16.837c23.136-14.987,49.093-22.908,75.063-22.908
			C617.609,146.498,671.09,241.151,653.66,345.726z"/>
	</g>
</g>
</svg>
