<?xml version="1.0" encoding="utf-8"?>
<!-- Generator: Adobe Illustrator 16.0.0, SVG Export Plug-In . SVG Version: 6.00 Build 0)  -->
<!DOCTYPE svg PUBLIC "-//W3C//DTD SVG 1.1//EN" "http://www.w3.org/Graphics/SVG/1.1/DTD/svg11.dtd">
<svg version="1.1" xmlns="http://www.w3.org/2000/svg" xmlns:xlink="http://www.w3.org/1999/xlink" x="0px" y="0px"
	 width="485.337px" height="334.447px" viewBox="0 0 485.337 334.447" enable-background="new 0 0 485.337 334.447"
	 xml:space="preserve">
<g id="object">
</g>
<g id="Layer_2">
	<g>
		
	<path fill="#231F20" d="M122.599,332.188c0-0.594,0.242-1.191,0.768-1.643h-0.768V332.188z"/>
	<path fill="#231F20" opacity=".5" d="M469.405,97.98h-42.628V10.791v-0.369V10.42c0-5.756-4.666-10.42-10.42-10.42H10.42
		C4.666,0,0,4.664,0,10.42v0.371v223.66v1.295v27.68v0.375v0.002c0,0.347,0.019,0.689,0.052,1.027c0.01,0.102,0.029,0.199,0.043,0.3
		c0.029,0.235,0.061,0.47,0.106,0.7c0.023,0.118,0.056,0.233,0.083,0.352c0.049,0.206,0.098,0.412,0.158,0.614
		c0.037,0.123,0.08,0.242,0.122,0.363c0.064,0.19,0.131,0.38,0.206,0.564c0.051,0.123,0.105,0.243,0.16,0.363
		c0.08,0.175,0.161,0.349,0.25,0.519c0.064,0.123,0.132,0.243,0.201,0.363c0.09,0.158,0.184,0.313,0.282,0.465
		c0.08,0.125,0.163,0.246,0.248,0.367c0.097,0.137,0.196,0.27,0.3,0.401c0.1,0.127,0.2,0.253,0.306,0.375
		c0.036,0.042,0.067,0.087,0.104,0.128c0.054,0.061,0.115,0.115,0.171,0.174c0.145,0.155,0.291,0.308,0.443,0.453
		c0.11,0.105,0.224,0.207,0.338,0.307c0.141,0.124,0.285,0.243,0.433,0.359c0.132,0.104,0.267,0.204,0.403,0.302
		c0.142,0.1,0.286,0.195,0.433,0.288c0.151,0.096,0.302,0.189,0.458,0.278c0.145,0.081,0.292,0.156,0.44,0.231
		c0.165,0.084,0.33,0.166,0.501,0.241c0.149,0.065,0.303,0.122,0.456,0.181c0.176,0.068,0.351,0.137,0.531,0.195
		c0.157,0.051,0.32,0.09,0.481,0.133c0.183,0.05,0.363,0.103,0.551,0.143c0.169,0.035,0.343,0.057,0.515,0.084
		c0.185,0.029,0.368,0.065,0.556,0.085c0.196,0.021,0.396,0.023,0.596,0.032c0.165,0.008,0.326,0.027,0.493,0.027h170.643
		l-3.761,38.625c-0.277,2.85-1.797,5.441-4.162,7.102l-12.584,8.822c-0.656,0.459-0.949,1.122-0.954,1.779h-0.003v0.049
		c0,0.006,0,0.011,0,0.016v1.641c0.035,1.121,0.9,2.195,2.268,2.195h125.402c0.855,0,1.515-0.421,1.897-1.01
		c0.001-0.002,0.001-0.003,0.003-0.005c0.227-0.352,0.355-0.763,0.369-1.181v-1.642c0-0.005,0-0.009,0-0.013v-0.051h-0.001v-0.002
		h-0.002c-0.006-0.657-0.299-1.318-0.954-1.777l-12.584-8.822c-2.367-1.66-3.885-4.252-4.162-7.102l-3.761-38.625h100.153v44.158
		c0,8.799,7.131,15.93,15.93,15.93h85.248c8.799,0,15.932-7.131,15.932-15.93V113.91C485.337,105.113,478.204,97.98,469.405,97.98z
		 M471.643,100.087c0.052,0.009,0.104,0.011,0.156,0.021c0.018,0.002,0.036,0.004,0.054,0.008c0.049,0.008,0.096,0.023,0.145,0.032
		c-0.076-0.015-0.154-0.022-0.232-0.036C471.724,100.104,471.685,100.094,471.643,100.087z M472.95,100.362
		c0.108,0.028,0.218,0.058,0.325,0.089c-0.069-0.021-0.141-0.035-0.21-0.054C473.026,100.387,472.989,100.373,472.95,100.362z
		 M474.21,100.758c0.1,0.035,0.198,0.071,0.297,0.11c-0.063-0.024-0.127-0.043-0.188-0.066
		C474.282,100.788,474.247,100.771,474.21,100.758z M475.419,101.266c0.088,0.042,0.176,0.083,0.263,0.127
		c-0.054-0.027-0.11-0.049-0.165-0.076C475.483,101.301,475.452,101.281,475.419,101.266z M476.567,101.881
		c0.076,0.045,0.154,0.091,0.229,0.139c-0.046-0.029-0.095-0.054-0.142-0.082C476.625,101.92,476.597,101.898,476.567,101.881z
		 M477.649,102.597c0.066,0.048,0.132,0.096,0.197,0.146c-0.039-0.029-0.081-0.056-0.12-0.084
		C477.7,102.639,477.677,102.616,477.649,102.597z M478.66,103.408c0.055,0.049,0.109,0.096,0.163,0.145
		c-0.031-0.028-0.066-0.054-0.098-0.082C478.703,103.45,478.683,103.428,478.66,103.408z M472.246,332.096
		c-0.045,0.009-0.091,0.018-0.136,0.026C472.155,332.113,472.202,332.104,472.246,332.096z M473.497,331.775
		c-0.039,0.012-0.08,0.023-0.12,0.035C473.417,331.799,473.458,331.788,473.497,331.775z M474.615,331.371
		c0.071-0.027,0.144-0.055,0.213-0.084c-0.106,0.045-0.214,0.09-0.321,0.132C474.544,331.404,474.578,331.387,474.615,331.371z
		 M475.926,330.769c-0.073,0.039-0.146,0.077-0.219,0.114C475.78,330.846,475.853,330.807,475.926,330.769z M476.983,330.15
		c-0.051,0.033-0.102,0.065-0.152,0.098C476.882,330.216,476.933,330.184,476.983,330.15z M477.869,329.527
		c0.035-0.027,0.073-0.052,0.108-0.079c-0.043,0.033-0.088,0.064-0.131,0.097C477.854,329.539,477.861,329.533,477.869,329.527z
		 M374.285,328.289c0.05,0.05,0.099,0.103,0.149,0.152c-0.063-0.061-0.122-0.124-0.184-0.186
		C374.263,328.268,374.274,328.277,374.285,328.289z M373.838,327.838c-0.027-0.029-0.057-0.059-0.084-0.089
		c0.02,0.022,0.042,0.042,0.063,0.063C373.823,327.821,373.831,327.83,373.838,327.838z M374.708,328.705
		c0.011,0.01,0.02,0.02,0.029,0.029c-0.034-0.032-0.07-0.063-0.105-0.094C374.656,328.663,374.684,328.683,374.708,328.705z
		 M375.226,329.146c0.059,0.049,0.115,0.101,0.176,0.148c-0.074-0.059-0.144-0.121-0.216-0.182
		C375.198,329.123,375.212,329.135,375.226,329.146z M375.679,329.516c0.012,0.01,0.023,0.021,0.036,0.03
		c-0.042-0.032-0.086-0.062-0.128-0.095C375.616,329.475,375.649,329.493,375.679,329.516z M376.24,329.914
		c0.067,0.045,0.132,0.096,0.199,0.141c-0.083-0.056-0.163-0.115-0.245-0.172C376.21,329.893,376.226,329.903,376.24,329.914z
		 M376.719,330.237c0.016,0.01,0.029,0.021,0.045,0.03c-0.05-0.031-0.102-0.061-0.151-0.092
		C376.646,330.197,376.685,330.216,376.719,330.237z M377.319,330.586c0.071,0.041,0.14,0.084,0.212,0.123
		c-0.089-0.047-0.174-0.1-0.261-0.149C377.286,330.568,377.304,330.577,377.319,330.586z M377.826,330.865
		c0.019,0.01,0.035,0.021,0.053,0.029c-0.059-0.029-0.118-0.057-0.177-0.086C377.743,330.829,377.786,330.845,377.826,330.865z
		 M378.458,331.16c0.072,0.031,0.143,0.068,0.215,0.1c-0.09-0.038-0.177-0.082-0.266-0.122
		C378.424,331.146,378.44,331.152,378.458,331.16z M378.993,331.393c0.021,0.009,0.041,0.019,0.061,0.027
		c-0.066-0.027-0.135-0.051-0.201-0.077C378.898,331.361,378.947,331.375,378.993,331.393z M379.647,331.628
		c0.066,0.022,0.131,0.049,0.197,0.071c-0.082-0.027-0.162-0.059-0.244-0.087C379.616,331.617,379.632,331.622,379.647,331.628z
		 M380.218,331.814c0.022,0.007,0.044,0.016,0.066,0.022c-0.076-0.022-0.152-0.04-0.228-0.063
		C380.109,331.789,380.165,331.799,380.218,331.814z M380.883,331.986c0.057,0.014,0.112,0.03,0.169,0.043
		c-0.07-0.016-0.139-0.035-0.209-0.053C380.856,331.98,380.87,331.982,380.883,331.986z M381.491,332.124
		c0.023,0.005,0.047,0.011,0.07,0.016c-0.084-0.016-0.168-0.027-0.252-0.045C381.369,332.107,381.432,332.112,381.491,332.124z
		 M382.163,332.231c0.046,0.007,0.091,0.016,0.137,0.021c-0.057-0.007-0.113-0.018-0.17-0.026
		C382.142,332.229,382.151,332.229,382.163,332.231z M478.901,328.668c0.009-0.008,0.017-0.017,0.025-0.025
		c-0.012,0.011-0.021,0.021-0.033,0.032C478.896,328.672,478.899,328.67,478.901,328.668z M482.108,324.248
		c0.004-0.009,0.009-0.017,0.013-0.025c-0.075,0.162-0.143,0.328-0.224,0.487C481.974,324.56,482.037,324.401,482.108,324.248z
		 M481.613,325.215C481.613,325.215,481.613,325.215,481.613,325.215C481.613,325.216,481.613,325.216,481.613,325.215
		L481.613,325.215z M482.432,323.527c0.004-0.011,0.009-0.021,0.013-0.031c0.04-0.103,0.069-0.21,0.107-0.313
		c0.041-0.114,0.08-0.229,0.119-0.344c-0.079,0.234-0.152,0.472-0.244,0.7C482.429,323.535,482.43,323.531,482.432,323.527z
		 M482.855,322.292c0.03-0.102,0.049-0.208,0.076-0.31c0.038-0.143,0.071-0.286,0.105-0.43c-0.06,0.255-0.114,0.512-0.187,0.762
		C482.853,322.308,482.854,322.3,482.855,322.292z M483.164,321.013c0-0.002,0.001-0.003,0.001-0.005
		c0.003-0.017,0.006-0.033,0.009-0.05c-0.005,0.028-0.009,0.056-0.015,0.084C483.161,321.032,483.162,321.022,483.164,321.013z
		 M483.355,319.607c0.001-0.005,0.001-0.01,0.002-0.016c-0.004,0.045-0.003,0.091-0.008,0.135
		C483.354,319.688,483.353,319.646,483.355,319.607z M483.349,112.547c-0.001-0.004-0.001-0.008-0.001-0.012
		c0.001,0.009,0.001,0.017,0.002,0.025C483.35,112.556,483.349,112.552,483.349,112.547z M483.153,111.221
		c-0.001-0.007-0.002-0.015-0.003-0.021c0.003,0.015,0.007,0.03,0.009,0.046C483.158,111.236,483.155,111.229,483.153,111.221z
		 M482.838,109.937c-0.003-0.011-0.005-0.021-0.008-0.032c0.007,0.023,0.013,0.045,0.021,0.068
		C482.847,109.96,482.841,109.948,482.838,109.937z M482.406,108.701c-0.005-0.014-0.009-0.027-0.015-0.04
		c0.012,0.028,0.024,0.058,0.035,0.087C482.421,108.732,482.413,108.717,482.406,108.701z M481.866,107.521
		c-0.009-0.016-0.015-0.032-0.023-0.048c0.019,0.035,0.037,0.069,0.055,0.104C481.888,107.559,481.876,107.54,481.866,107.521z
		 M481.222,106.401c-0.012-0.018-0.021-0.037-0.032-0.055c0.025,0.04,0.052,0.08,0.077,0.12
		C481.252,106.444,481.235,106.424,481.222,106.401z M480.479,105.349c-0.015-0.02-0.027-0.04-0.042-0.06
		c0.034,0.045,0.068,0.088,0.104,0.133C480.521,105.396,480.498,105.373,480.479,105.349z M479.646,104.369
		c-0.02-0.02-0.035-0.041-0.055-0.062c0.045,0.047,0.089,0.094,0.133,0.142C479.698,104.422,479.671,104.396,479.646,104.369z
		 M372.007,325.318c-0.021-0.035-0.04-0.07-0.06-0.105c0.004,0.006,0.007,0.013,0.011,0.02
		C371.975,325.261,371.99,325.289,372.007,325.318z M372.285,325.802c0.004,0.006,0.007,0.013,0.011,0.019
		c-0.016-0.025-0.033-0.049-0.049-0.074C372.259,325.766,372.272,325.783,372.285,325.802z M371.665,324.71
		c-0.012-0.022-0.024-0.043-0.035-0.065c0.009,0.018,0.02,0.033,0.027,0.051C371.66,324.699,371.662,324.705,371.665,324.71z
		 M371.397,324.126c-0.01-0.022-0.02-0.045-0.03-0.067c0.002,0.004,0.004,0.008,0.006,0.012
		C371.381,324.089,371.39,324.107,371.397,324.126z M371.135,323.539c-0.007-0.018-0.016-0.035-0.022-0.053
		c0.006,0.014,0.013,0.027,0.019,0.041C371.132,323.531,371.134,323.535,371.135,323.539z M370.903,322.873
		c-0.004-0.012-0.009-0.023-0.013-0.035c0.001,0.002,0.002,0.004,0.003,0.006C370.896,322.854,370.899,322.863,370.903,322.873z
		 M370.712,322.314c-0.004-0.014-0.009-0.027-0.013-0.041c0.003,0.011,0.008,0.021,0.011,0.033
		C370.711,322.31,370.712,322.313,370.712,322.314z M370.528,321.565c-0.001-0.005-0.002-0.009-0.003-0.014
		c0,0.001,0.001,0.002,0.001,0.003C370.526,321.559,370.528,321.562,370.528,321.565z M370.403,321.042
		c-0.002-0.009-0.005-0.019-0.007-0.028c0.001,0.008,0.004,0.016,0.005,0.023C370.402,321.039,370.402,321.04,370.403,321.042z
		 M370.277,320.18c-0.001-0.006-0.002-0.011-0.003-0.016l0.001,0.002C370.276,320.171,370.276,320.175,370.277,320.18z
		 M370.213,319.728c-0.001-0.005-0.002-0.01-0.002-0.015c0,0.004,0.001,0.008,0.001,0.012
		C370.213,319.727,370.212,319.727,370.213,319.728z M372.626,326.301c0.006,0.008,0.012,0.017,0.018,0.025
		c0.027,0.039,0.053,0.079,0.08,0.118C372.69,326.396,372.658,326.348,372.626,326.301z M373.007,326.843
		c0.005,0.007,0.01,0.016,0.016,0.022c-0.021-0.027-0.045-0.055-0.066-0.083C372.972,326.803,372.99,326.822,373.007,326.843z
		 M373.421,327.347c0.038,0.045,0.073,0.091,0.111,0.135c-0.047-0.054-0.091-0.11-0.137-0.165
		C373.404,327.327,373.413,327.337,373.421,327.347z M471.017,332.297L471.017,332.297c0.08-0.008,0.162-0.014,0.242-0.025
		c-0.047,0.008-0.094,0.014-0.141,0.018C471.085,332.293,471.05,332.297,471.017,332.297z M480.038,327.471
		c-0.104,0.121-0.203,0.246-0.312,0.364C479.835,327.717,479.935,327.592,480.038,327.471z M480.587,326.805
		c0.035-0.047,0.063-0.098,0.097-0.145c0.087-0.117,0.169-0.238,0.251-0.357c-0.127,0.184-0.248,0.371-0.384,0.549
		C480.563,326.836,480.575,326.82,480.587,326.805z M481.396,325.596c0.008-0.015,0.019-0.027,0.027-0.042
		c-0.053,0.089-0.102,0.18-0.156,0.267C481.312,325.747,481.351,325.669,481.396,325.596z M483.198,108.353
		c0.119,0.233,0.222,0.478,0.33,0.719C483.42,108.83,483.317,108.586,483.198,108.353z M481.252,105.447
		c-0.159-0.189-0.313-0.382-0.48-0.563C480.938,105.065,481.093,105.258,481.252,105.447z M479.769,103.895
		c0.18,0.162,0.348,0.337,0.52,0.508C480.116,104.231,479.948,104.057,479.769,103.895z M481.682,105.962
		c0.153,0.198,0.292,0.409,0.435,0.615C481.974,106.371,481.835,106.16,481.682,105.962z M482.493,107.119
		c0.137,0.217,0.257,0.443,0.384,0.666C482.751,107.563,482.63,107.336,482.493,107.119z M478.68,102.999
		c0.19,0.144,0.37,0.298,0.555,0.45C479.05,103.298,478.87,103.143,478.68,102.999z M472.189,100.163
		c0.216,0.039,0.427,0.091,0.64,0.14C472.616,100.254,472.405,100.202,472.189,100.163z M473.605,100.49
		c0.213,0.06,0.42,0.133,0.629,0.201C474.025,100.623,473.818,100.55,473.605,100.49z M474.97,100.943
		c0.209,0.081,0.411,0.175,0.616,0.265C475.382,101.118,475.179,101.024,474.97,100.943z M476.273,101.518
		c0.205,0.102,0.402,0.217,0.603,0.327C476.676,101.734,476.479,101.619,476.273,101.518z M477.513,102.205
		c0.199,0.122,0.389,0.258,0.581,0.389C477.901,102.463,477.712,102.327,477.513,102.205z M471.318,100.039
		c-0.032-0.004-0.065-0.008-0.098-0.011c-0.112-0.015-0.222-0.04-0.335-0.052c0.156,0.015,0.309,0.047,0.463,0.066
		C471.339,100.041,471.328,100.041,471.318,100.039z M483.79,109.651c0.102,0.254,0.184,0.517,0.271,0.777
		C483.974,110.168,483.892,109.905,483.79,109.651z M484.752,113.408c-0.042-0.329-0.081-0.66-0.144-0.982
		C484.671,112.748,484.71,113.079,484.752,113.408z M484.472,111.86c-0.067-0.284-0.127-0.571-0.209-0.849
		C484.345,111.289,484.404,111.576,484.472,111.86z M484.821,113.887c0.047,0.494,0.072,0.995,0.072,1.502
		C484.894,114.882,484.868,114.381,484.821,113.887z"/>
</g>
</svg>
