<?xml version="1.0" encoding="utf-8"?>
<!-- Generator: Adobe Illustrator 16.0.0, SVG Export Plug-In . SVG Version: 6.00 Build 0)  -->
<!DOCTYPE svg PUBLIC "-//W3C//DTD SVG 1.1//EN" "http://www.w3.org/Graphics/SVG/1.1/DTD/svg11.dtd">
<svg version="1.1" xmlns="http://www.w3.org/2000/svg" xmlns:xlink="http://www.w3.org/1999/xlink" x="0px" y="0px"
	 width="546.902px" height="333.492px" viewBox="0 0 546.902 333.492" enable-background="new 0 0 546.902 333.492"
	 xml:space="preserve">

<g id="Layer_2">
	<path fill="#231F20" opacity=".5" d="M547.342,152.908c-0.232,0-0.414,0.174-0.439,0.4V113.91c0-3.103-0.901-5.989-2.437-8.438
		c-0.012-0.02-0.023-0.04-0.035-0.059c-0.229-0.36-0.472-0.709-0.727-1.048c-0.052-0.07-0.104-0.142-0.157-0.211
		c-0.223-0.287-0.456-0.563-0.698-0.835c-0.106-0.119-0.213-0.238-0.322-0.354c-0.202-0.213-0.409-0.419-0.622-0.621
		c-0.177-0.168-0.356-0.331-0.541-0.491c-0.161-0.139-0.323-0.275-0.49-0.408c-0.269-0.216-0.545-0.42-0.827-0.619
		c-0.095-0.065-0.188-0.132-0.284-0.195c-2.158-1.447-4.679-2.396-7.406-2.65l-0.066,0.066c-0.436-0.035-0.873-0.066-1.318-0.066
		h-39.193V10.791v-0.369V10.42c0-5.756-4.666-10.42-10.42-10.42H10.42C4.666,0,0,4.664,0,10.42v0.371v223.66v1.295v27.68v0.375
		v0.002c0,0.347,0.019,0.689,0.052,1.027c0.01,0.102,0.029,0.199,0.042,0.3c0.03,0.235,0.062,0.47,0.107,0.7
		c0.023,0.118,0.056,0.233,0.083,0.352c0.048,0.206,0.098,0.412,0.158,0.614c0.037,0.123,0.08,0.242,0.122,0.363
		c0.064,0.19,0.131,0.38,0.207,0.564c0.05,0.123,0.104,0.243,0.159,0.363c0.08,0.175,0.161,0.349,0.25,0.519
		c0.064,0.123,0.132,0.243,0.201,0.363c0.09,0.158,0.184,0.313,0.282,0.465c0.08,0.125,0.163,0.246,0.248,0.367
		c0.097,0.137,0.197,0.27,0.3,0.401c0.1,0.127,0.2,0.253,0.306,0.375c0.035,0.042,0.067,0.087,0.104,0.128
		c0.054,0.061,0.115,0.115,0.171,0.174c0.144,0.155,0.29,0.308,0.443,0.453c0.11,0.105,0.224,0.207,0.338,0.307
		c0.142,0.124,0.285,0.243,0.433,0.359c0.132,0.104,0.267,0.204,0.403,0.302c0.142,0.1,0.286,0.195,0.433,0.288
		c0.15,0.096,0.302,0.189,0.458,0.278c0.145,0.081,0.292,0.156,0.44,0.231c0.165,0.084,0.33,0.166,0.501,0.241
		c0.149,0.065,0.303,0.122,0.456,0.181c0.176,0.068,0.351,0.137,0.531,0.195c0.158,0.051,0.32,0.09,0.481,0.133
		c0.183,0.05,0.364,0.103,0.551,0.143c0.169,0.035,0.343,0.057,0.515,0.084c0.186,0.029,0.368,0.065,0.557,0.085
		c0.195,0.021,0.396,0.023,0.595,0.032c0.165,0.008,0.326,0.027,0.493,0.027h198.612l-3.761,38.625
		c-0.277,2.85-1.797,5.441-4.162,7.102l-12.584,8.822c-0.656,0.459-0.948,1.122-0.954,1.779h-0.003v0.049c0,0.006,0,0.011,0,0.016
		v1.641c0.035,1.121,0.9,2.195,2.268,2.195h125.402c0.855,0,1.515-0.421,1.897-1.01c0.001-0.002,0.001-0.003,0.003-0.005
		c0.227-0.352,0.355-0.763,0.369-1.181v-1.642c0-0.005,0-0.009,0-0.013v-0.051h-0.001v-0.002h-0.002
		c-0.006-0.657-0.299-1.318-0.954-1.777l-12.584-8.822c-2.367-1.66-3.885-4.252-4.162-7.102l-3.761-38.625H428.9v45.748
		c0,8.863,7.188,16.049,16.051,16.049h85.895c8.861,0,16.047-7.186,16.047-16.049v-1.396c0.001-0.064,0.01-0.128,0.01-0.193V179.85
		c0.025,0.222,0.207,0.395,0.439,0.395c0.115,0,0.219-0.043,0.295-0.115c0.096-0.082,0.148-0.197,0.148-0.328v-26.443
		c0-0.131-0.053-0.252-0.148-0.334C547.561,152.951,547.457,152.908,547.342,152.908z"/>
</g>
</svg>
