<?xml version="1.0" encoding="utf-8"?>
<!-- Generator: Adobe Illustrator 16.0.0, SVG Export Plug-In . SVG Version: 6.00 Build 0)  -->
<!DOCTYPE svg PUBLIC "-//W3C//DTD SVG 1.1//EN" "http://www.w3.org/Graphics/SVG/1.1/DTD/svg11.dtd">
<svg version="1.1" xmlns="http://www.w3.org/2000/svg" xmlns:xlink="http://www.w3.org/1999/xlink" x="0px" y="0px"
	 width="485.337px" height="334.447px" viewBox="0 0 485.337 334.447" enable-background="new 0 0 485.337 334.447"
	 xml:space="preserve">
<g id="object">
	<g>
		<g>
			<linearGradient id="SVGID_1_" gradientUnits="userSpaceOnUse" x1="159.5996" y1="332.4946" x2="289.5371" y2="332.4946">
				<stop  offset="0" style="stop-color:#808080"/>
				<stop  offset="0.0504" style="stop-color:#8A8A8A"/>
				<stop  offset="0.1361" style="stop-color:#A5A5A5"/>
				<stop  offset="0.1607" style="stop-color:#AEAEAE"/>
				<stop  offset="0.2758" style="stop-color:#CACACA"/>
				<stop  offset="0.3866" style="stop-color:#E1E1E1"/>
				<stop  offset="0.6478" style="stop-color:#DCDEE0"/>
				<stop  offset="0.7315" style="stop-color:#CBCCCE"/>
				<stop  offset="0.8985" style="stop-color:#9E9F9F"/>
				<stop  offset="1" style="stop-color:#808080"/>
			</linearGradient>
			<path fill="url(#SVGID_1_)" d="M289.537,330.544v1.705c-0.033,1.121-0.898,2.195-2.268,2.195H161.867
				c-1.367,0-2.232-1.074-2.268-2.195v-0.063c0-0.594,0.242-1.191,0.768-1.643H289.537z"/>
			<linearGradient id="SVGID_2_" gradientUnits="userSpaceOnUse" x1="122.5986" y1="331.3657" x2="252.4514" y2="331.3657">
				<stop  offset="0" style="stop-color:#808080"/>
				<stop  offset="0.0504" style="stop-color:#8A8A8A"/>
				<stop  offset="0.1361" style="stop-color:#A5A5A5"/>
				<stop  offset="0.1607" style="stop-color:#AEAEAE"/>
				<stop  offset="0.2758" style="stop-color:#CACACA"/>
				<stop  offset="0.3866" style="stop-color:#E1E1E1"/>
				<stop  offset="0.6478" style="stop-color:#DCDEE0"/>
				<stop  offset="0.7315" style="stop-color:#CBCCCE"/>
				<stop  offset="0.8985" style="stop-color:#9E9F9F"/>
				<stop  offset="1" style="stop-color:#808080"/>
			</linearGradient>
			<path fill="url(#SVGID_2_)" d="M123.366,330.544c-0.525,0.451-0.768,1.049-0.768,1.643v-1.643H123.366z"/>
		</g>
		<g>
			<linearGradient id="SVGID_3_" gradientUnits="userSpaceOnUse" x1="224.5684" y1="332.8257" x2="224.5684" y2="270.6577">
				<stop  offset="0" style="stop-color:#C7C7C7"/>
				<stop  offset="0.1632" style="stop-color:#AEAEAE"/>
				<stop  offset="0.1982" style="stop-color:#979797"/>
				<stop  offset="0.2386" style="stop-color:#808080"/>
				<stop  offset="0.2627" style="stop-color:#8A8A8A"/>
				<stop  offset="0.3037" style="stop-color:#A5A5A5"/>
				<stop  offset="0.3564" style="stop-color:#D1D1D1"/>
				<stop  offset="0.3866" style="stop-color:#EDEDED"/>
				<stop  offset="0.6478" style="stop-color:#DCDEE0"/>
				<stop  offset="0.7315" style="stop-color:#CBCCCE"/>
				<stop  offset="0.8985" style="stop-color:#9E9F9F"/>
				<stop  offset="1" style="stop-color:#808080"/>
			</linearGradient>
			<path fill="url(#SVGID_3_)" d="M287.269,332.826H161.866c-2.203,0-3.111-2.799-1.311-4.059l12.584-8.822
				c2.365-1.66,3.885-4.252,4.162-7.102l4.107-42.186h86.318l4.107,42.186c0.277,2.85,1.795,5.441,4.162,7.102l12.584,8.822
				C290.382,330.027,289.474,332.826,287.269,332.826z"/>
		</g>
		<g>
			<defs>
				<filter id="Adobe_OpacityMaskFilter" filterUnits="userSpaceOnUse" x="159.599" y="330.546" width="129.939" height="3.9">
					<feFlood  style="flood-color:white;flood-opacity:1" result="back"/>
					<feBlend  in="SourceGraphic" in2="back" mode="normal"/>
				</filter>
			</defs>
			<mask maskUnits="userSpaceOnUse" x="159.599" y="330.546" width="129.939" height="3.9" id="SVGID_4_">
				<g filter="url(#Adobe_OpacityMaskFilter)">
					<defs>
						<filter id="Adobe_OpacityMaskFilter_1_" filterUnits="userSpaceOnUse" x="159.599" y="330.546" width="129.939" height="3.9">
							<feFlood  style="flood-color:white;flood-opacity:1" result="back"/>
							<feBlend  in="SourceGraphic" in2="back" mode="normal"/>
						</filter>
					</defs>
					<mask maskUnits="userSpaceOnUse" x="159.599" y="330.546" width="129.939" height="3.9" id="SVGID_4_">
					</mask>
					<linearGradient id="SVGID_5_" gradientUnits="userSpaceOnUse" x1="224.5684" y1="334.4468" x2="224.5684" y2="330.5464">
						<stop  offset="0" style="stop-color:#FFFFFF"/>
						<stop  offset="0.0353" style="stop-color:#E1E1E1"/>
						<stop  offset="0.0985" style="stop-color:#B3B3B3"/>
						<stop  offset="0.1674" style="stop-color:#888888"/>
						<stop  offset="0.2405" style="stop-color:#636363"/>
						<stop  offset="0.3187" style="stop-color:#444444"/>
						<stop  offset="0.4037" style="stop-color:#2B2B2B"/>
						<stop  offset="0.4983" style="stop-color:#181818"/>
						<stop  offset="0.6076" style="stop-color:#0A0A0A"/>
						<stop  offset="0.7449" style="stop-color:#020202"/>
						<stop  offset="1" style="stop-color:#000000"/>
					</linearGradient>
					<path mask="url(#SVGID_4_)" fill="url(#SVGID_5_)" d="M289.538,330.546v1.705c-0.035,1.121-0.902,2.195-2.27,2.195H161.866
						c-1.367,0-2.232-1.074-2.268-2.195v-1.705H289.538z"/>
				</g>
			</mask>
			<linearGradient id="SVGID_6_" gradientUnits="userSpaceOnUse" x1="224.5684" y1="334.4468" x2="224.5684" y2="330.5464">
				<stop  offset="0" style="stop-color:#666666"/>
				<stop  offset="0.0358" style="stop-color:#787878"/>
				<stop  offset="0.1188" style="stop-color:#9C9C9C"/>
				<stop  offset="0.2095" style="stop-color:#BBBBBB"/>
				<stop  offset="0.3081" style="stop-color:#D4D4D4"/>
				<stop  offset="0.4178" style="stop-color:#E7E7E7"/>
				<stop  offset="0.5447" style="stop-color:#F5F5F5"/>
				<stop  offset="0.704" style="stop-color:#FDFDFD"/>
				<stop  offset="1" style="stop-color:#FFFFFF"/>
			</linearGradient>
			<path fill="url(#SVGID_6_)" d="M289.538,330.546v1.705c-0.035,1.121-0.902,2.195-2.27,2.195H161.866
				c-1.367,0-2.232-1.074-2.268-2.195v-1.705H289.538z"/>
		</g>
	</g>
	<g>
		<g>
			<path fill="#333333" d="M426.777,10.42v253.005c0,5.754-4.666,10.42-10.42,10.42H10.42c-5.754,0-10.42-4.666-10.42-10.42V10.42
				C0,4.664,4.666,0,10.42,0h405.938C422.111,0,426.777,4.664,426.777,10.42z"/>
			<path d="M426.777,10.791V263.8c0,5.752-4.666,10.416-10.42,10.416H10.42C4.666,274.216,0,269.552,0,263.8V10.791
				c0-5.756,4.666-10.42,10.42-10.42h405.938C422.111,0.371,426.777,5.035,426.777,10.791z"/>
		</g>
		<linearGradient id="SVGID_7_" gradientUnits="userSpaceOnUse" x1="0" y1="254.3345" x2="426.7754" y2="254.3345">
			<stop  offset="0" style="stop-color:#A2A4A8"/>
			<stop  offset="0.084" style="stop-color:#B1B3B7"/>
			<stop  offset="0.2266" style="stop-color:#C4C6C9"/>
			<stop  offset="0.393" style="stop-color:#D2D4D6"/>
			<stop  offset="0.6031" style="stop-color:#DADCDE"/>
			<stop  offset="1" style="stop-color:#DCDEE0"/>
		</linearGradient>
		<path fill="url(#SVGID_7_)" d="M426.775,234.451v29.352c0,2.648-0.988,5.066-2.621,6.902c-1.904,2.156-4.691,3.514-7.799,3.514
			H10.42c-3.107,0-5.895-1.357-7.799-3.514C0.988,268.869,0,266.451,0,263.802v-29.352H426.775z"/>
		<defs>
			<filter id="Adobe_OpacityMaskFilter_2_" filterUnits="userSpaceOnUse" x="2.621" y="270.705" width="421.533" height="3.514">
				<feFlood  style="flood-color:white;flood-opacity:1" result="back"/>
				<feBlend  in="SourceGraphic" in2="back" mode="normal"/>
			</filter>
		</defs>
		<mask maskUnits="userSpaceOnUse" x="2.621" y="270.705" width="421.533" height="3.514" id="SVGID_8_">
			<g filter="url(#Adobe_OpacityMaskFilter_2_)">
				<defs>
					<filter id="Adobe_OpacityMaskFilter_3_" filterUnits="userSpaceOnUse" x="2.621" y="270.705" width="425.832" height="3.514">
						<feFlood  style="flood-color:white;flood-opacity:1" result="back"/>
						<feBlend  in="SourceGraphic" in2="back" mode="normal"/>
					</filter>
				</defs>
				<mask maskUnits="userSpaceOnUse" x="2.621" y="270.705" width="425.832" height="3.514" id="SVGID_8_">
				</mask>
				<linearGradient id="SVGID_9_" gradientUnits="userSpaceOnUse" x1="215.5371" y1="274.2183" x2="215.5371" y2="270.7046">
					<stop  offset="0" style="stop-color:#1A1A1A"/>
					<stop  offset="0.5583" style="stop-color:#0D0D0D"/>
					<stop  offset="1" style="stop-color:#000000"/>
				</linearGradient>
				<path mask="url(#SVGID_8_)" fill="url(#SVGID_9_)" d="M428.453,270.705c-1.904,2.156-4.691,3.514-7.799,3.514H10.42
					c-3.107,0-5.895-1.357-7.799-3.514H428.453z"/>
			</g>
		</mask>
		<linearGradient id="SVGID_10_" gradientUnits="userSpaceOnUse" x1="213.3877" y1="274.2183" x2="213.3877" y2="270.7046">
			<stop  offset="0" style="stop-color:#000000"/>
			<stop  offset="0.0886" style="stop-color:#0C0C0C"/>
			<stop  offset="0.2503" style="stop-color:#2D2D2D"/>
			<stop  offset="0.4673" style="stop-color:#636363"/>
			<stop  offset="0.7313" style="stop-color:#ADADAD"/>
			<stop  offset="1" style="stop-color:#FFFFFF"/>
		</linearGradient>
		<path fill="url(#SVGID_10_)" d="M424.154,270.705c-1.904,2.156-4.691,3.514-7.799,3.514H10.42c-3.107,0-5.895-1.357-7.799-3.514
			H424.154z"/>
	</g>
	<g>
		<path fill="#333333" d="M409.16,18.154H17.617c-0.424,0-0.768,0.348-0.768,0.777v215.52h1.17V19.333h390.736v215.117h1.17V18.931
			C409.926,18.501,409.582,18.154,409.16,18.154z"/>
	</g>
	<rect y="234.451" opacity="0.3" fill="#FFFFFF" width="426.777" height="1.295"/>
	<linearGradient id="SVGID_11_" gradientUnits="userSpaceOnUse" x1="61.9248" y1="-24.5708" x2="364.8517" y2="278.3561">
		<stop  offset="0" style="stop-color:#F2F3F4"/>
		<stop  offset="0.3559" style="stop-color:#EDEEEF"/>
		<stop  offset="0.7827" style="stop-color:#DFE0E0"/>
		<stop  offset="1" style="stop-color:#D5D6D6"/>
	</linearGradient>
	<rect x="18.02" y="19.333" fill="url(#SVGID_11_)" width="390.736" height="215.117"/>
	<defs>
		<filter id="Adobe_OpacityMaskFilter_4_" filterUnits="userSpaceOnUse" x="85.557" y="0.002" width="341.221" height="234.449">
			<feFlood  style="flood-color:white;flood-opacity:1" result="back"/>
			<feBlend  in="SourceGraphic" in2="back" mode="normal"/>
		</filter>
	</defs>
	<mask maskUnits="userSpaceOnUse" x="85.557" y="0.002" width="341.221" height="234.449" id="SVGID_12_">
		<g filter="url(#Adobe_OpacityMaskFilter_4_)">
			<defs>
				<filter id="Adobe_OpacityMaskFilter_5_" filterUnits="userSpaceOnUse" x="85.557" y="-23.287" width="345.52" height="257.738">
					<feFlood  style="flood-color:white;flood-opacity:1" result="back"/>
					<feBlend  in="SourceGraphic" in2="back" mode="normal"/>
				</filter>
			</defs>
			<mask maskUnits="userSpaceOnUse" x="85.557" y="-23.287" width="345.52" height="257.738" id="SVGID_12_">
			</mask>
			<linearGradient id="SVGID_13_" gradientUnits="userSpaceOnUse" x1="258.3164" y1="234.4507" x2="258.3164" y2="-23.2871">
				<stop  offset="0" style="stop-color:#000000"/>
				<stop  offset="0.302" style="stop-color:#020202"/>
				<stop  offset="0.4395" style="stop-color:#090909"/>
				<stop  offset="0.5437" style="stop-color:#161616"/>
				<stop  offset="0.6311" style="stop-color:#282828"/>
				<stop  offset="0.7079" style="stop-color:#404040"/>
				<stop  offset="0.7774" style="stop-color:#5D5D5D"/>
				<stop  offset="0.8414" style="stop-color:#808080"/>
				<stop  offset="0.901" style="stop-color:#A8A8A8"/>
				<stop  offset="0.955" style="stop-color:#D4D4D4"/>
				<stop  offset="1" style="stop-color:#FFFFFF"/>
			</linearGradient>
			<path mask="url(#SVGID_12_)" fill="url(#SVGID_13_)" d="M431.076-12.867v247.318H85.557L343.295-23.287h77.361
				C426.41-23.287,431.076-18.622,431.076-12.867z"/>
		</g>
	</mask>
	<linearGradient id="SVGID_14_" gradientUnits="userSpaceOnUse" x1="256.167" y1="234.4507" x2="256.167" y2="0.0015">
		<stop  offset="0" style="stop-color:#EDEDED"/>
		<stop  offset="0.5857" style="stop-color:#EFEFEF"/>
		<stop  offset="0.8519" style="stop-color:#F6F6F6"/>
		<stop  offset="1" style="stop-color:#FFFFFF"/>
	</linearGradient>
	<path opacity="0.2" fill="url(#SVGID_14_)" d="M426.777,10.422v224.029H85.557L343.295,0.002h73.063
		C422.111,0.002,426.777,4.666,426.777,10.422z"/>
</g>
<g id="Layer_2">
	<g>
		<defs>
			<rect id="SVGID_97_" x="18.02" y="19.335" width="390.736" height="215.111"/>
		</defs>
		<clipPath id="SVGID_15_">
			<use xlink:href="#SVGID_97_"  overflow="visible"/>
		</clipPath>
		<g transform="matrix(1 0 0 1 3.814697e-006 0)" clip-path="url(#SVGID_15_)">
			
				<image overflow="visible" width="1920" height="4548" xlink:href="uiux/KakaoTalk_20210209_125515673.jpg"  transform="matrix(0.4119 0 0 0.4119 -33.0322 -95.2515)">
			</image>
		</g>
	</g>
	<g>
		<g>
			<g>
				<path fill="#00000C" d="M469.405,97.98h-85.248c-8.799,0-15.93,7.133-15.93,15.93v204.467c0,8.799,7.131,15.93,15.93,15.93
					h85.248c8.799,0,15.932-7.131,15.932-15.93V113.91C485.337,105.113,478.204,97.98,469.405,97.98z M484.894,316.898
					c0,1.658-0.264,3.258-0.748,4.758c-0.037,0.115-0.074,0.23-0.117,0.344c-0.037,0.115-0.08,0.227-0.123,0.34
					c-0.029,0.086-0.063,0.172-0.098,0.254c-0.1,0.252-0.207,0.5-0.32,0.744c-0.049,0.109-0.1,0.219-0.154,0.326
					c-0.072,0.15-0.146,0.299-0.227,0.447c-0.051,0.1-0.104,0.197-0.16,0.295c-0.057,0.104-0.113,0.207-0.176,0.311
					c-0.166,0.283-0.346,0.564-0.531,0.84c-0.059,0.086-0.117,0.174-0.18,0.26c-0.068,0.098-0.135,0.193-0.211,0.287
					c-0.066,0.096-0.137,0.191-0.213,0.285c-0.07,0.094-0.145,0.186-0.221,0.277c-0.074,0.092-0.15,0.184-0.23,0.275
					c-0.15,0.18-0.311,0.357-0.475,0.529c-0.246,0.266-0.504,0.523-0.773,0.775c-0.08,0.072-0.16,0.146-0.242,0.217
					c-0.188,0.166-0.377,0.326-0.568,0.486c-0.084,0.064-0.168,0.133-0.254,0.197c-0.281,0.219-0.57,0.426-0.867,0.623
					c-0.098,0.07-0.197,0.135-0.299,0.197c-0.199,0.129-0.404,0.25-0.611,0.369c-0.104,0.061-0.205,0.119-0.309,0.172
					c-0.334,0.184-0.674,0.355-1.023,0.508c-0.09,0.045-0.182,0.084-0.275,0.121c-0.107,0.051-0.217,0.094-0.33,0.139
					c-0.111,0.045-0.225,0.09-0.338,0.131c-0.25,0.096-0.504,0.184-0.762,0.264c-0.09,0.029-0.182,0.057-0.273,0.084
					c-0.336,0.1-0.684,0.188-1.031,0.264c-0.121,0.027-0.242,0.055-0.367,0.078c-0.127,0.025-0.258,0.051-0.391,0.07
					c-0.238,0.043-0.48,0.078-0.727,0.105h-0.01c-0.047,0.008-0.094,0.014-0.141,0.018c-0.033,0.004-0.068,0.008-0.102,0.008
					c-0.014,0.002-0.027,0.002-0.041,0.002c0.219-0.023,0.436-0.053,0.65-0.088c0.105-0.018,0.213-0.035,0.322-0.057
					c0.107-0.018,0.213-0.041,0.316-0.063c0.318-0.064,0.633-0.145,0.943-0.23c0.104-0.025,0.207-0.059,0.309-0.092
					c0.205-0.063,0.404-0.129,0.605-0.201c0.303-0.109,0.598-0.227,0.887-0.354c0.098-0.039,0.197-0.084,0.291-0.131
					c0.094-0.043,0.188-0.092,0.283-0.137c0.189-0.094,0.375-0.191,0.563-0.293c0.184-0.102,0.363-0.207,0.545-0.316
					c0.16-0.1,0.32-0.203,0.48-0.307c0.018-0.008,0.033-0.021,0.047-0.031c0.262-0.18,0.516-0.363,0.764-0.555
					c0.084-0.061,0.166-0.127,0.246-0.193c0.23-0.188,0.455-0.383,0.674-0.584c0.539-0.5,1.039-1.037,1.494-1.615
					c0.064-0.08,0.129-0.164,0.191-0.248c0.656-0.869,1.215-1.816,1.656-2.82c0.07-0.16,0.139-0.326,0.201-0.488
					c0.313-0.797,0.559-1.627,0.721-2.488c0.033-0.168,0.063-0.34,0.09-0.51c0.104-0.693,0.16-1.4,0.16-2.121V113.91
					c0-7.225-5.498-13.189-12.529-13.934c-0.123-0.014-0.25-0.023-0.375-0.033c-0.127-0.01-0.258-0.018-0.385-0.023h-0.002
					c-0.24-0.012-0.477-0.018-0.719-0.018h-85.244c-0.242,0-0.482,0.006-0.719,0.018h-0.01c-7.391,0.381-13.285,6.512-13.285,13.99
					v204.467c0,7.195,5.451,13.137,12.438,13.922c-0.094-0.008-0.189-0.016-0.285-0.027h-0.008
					c-0.246-0.027-0.488-0.063-0.729-0.105c-1.459-0.248-2.854-0.701-4.145-1.328c-0.092-0.045-0.182-0.088-0.273-0.133
					c-0.23-0.121-0.457-0.242-0.684-0.373c-0.104-0.059-0.203-0.117-0.305-0.18c-0.508-0.307-0.998-0.645-1.467-1.008
					c-0.086-0.066-0.168-0.131-0.25-0.199c-0.248-0.199-0.492-0.406-0.727-0.621c-0.076-0.07-0.152-0.141-0.227-0.215
					c-0.088-0.084-0.174-0.166-0.26-0.252c-0.084-0.084-0.168-0.172-0.252-0.258c-0.055-0.057-0.109-0.111-0.162-0.172
					c-0.068-0.072-0.137-0.146-0.201-0.221c-0.396-0.443-0.766-0.908-1.109-1.393c-0.061-0.086-0.119-0.174-0.18-0.26
					c-0.188-0.273-0.361-0.551-0.527-0.834c-0.061-0.102-0.121-0.205-0.178-0.309c-0.428-0.77-0.791-1.576-1.084-2.412
					c-0.041-0.115-0.08-0.229-0.115-0.344c-0.188-0.58-0.34-1.172-0.459-1.773c-0.023-0.123-0.047-0.244-0.068-0.365
					c-0.145-0.852-0.223-1.727-0.223-2.619V113.91c0-0.154,0.004-0.305,0.01-0.455c0-0.115,0.006-0.227,0.012-0.34
					c0.012-0.25,0.031-0.494,0.057-0.74c0.012-0.127,0.027-0.254,0.041-0.379c0.01-0.066,0.018-0.131,0.027-0.199
					c0.008-0.082,0.021-0.16,0.035-0.242c0.018-0.129,0.039-0.256,0.063-0.383c0.039-0.223,0.084-0.441,0.133-0.656
					c0.023-0.109,0.051-0.217,0.076-0.322c0.078-0.322,0.166-0.635,0.268-0.949c0.031-0.098,0.064-0.199,0.098-0.295
					c0.041-0.121,0.082-0.244,0.125-0.361c0.037-0.102,0.076-0.199,0.113-0.295c0.033-0.084,0.063-0.164,0.098-0.244
					c0.039-0.098,0.082-0.195,0.121-0.289c0.033-0.074,0.063-0.146,0.098-0.217c0.047-0.105,0.096-0.209,0.148-0.316
					c0.086-0.184,0.178-0.365,0.275-0.547c0.047-0.092,0.098-0.184,0.15-0.275c0.057-0.105,0.119-0.213,0.18-0.316
					c0.43-0.73,0.918-1.422,1.459-2.072c0.076-0.092,0.152-0.184,0.234-0.275c0.088-0.1,0.176-0.203,0.271-0.305
					c0.154-0.166,0.307-0.328,0.467-0.484c0.172-0.172,0.346-0.338,0.523-0.5c0.18-0.16,0.359-0.32,0.547-0.473
					c0.092-0.078,0.188-0.15,0.281-0.229c0.189-0.148,0.381-0.293,0.58-0.436c0.193-0.139,0.393-0.275,0.598-0.408
					c0.203-0.129,0.406-0.256,0.617-0.377c0.104-0.063,0.211-0.121,0.316-0.18c0.105-0.061,0.213-0.117,0.318-0.174
					c0.111-0.057,0.217-0.111,0.326-0.164c0.109-0.055,0.219-0.107,0.332-0.16c0.219-0.1,0.441-0.197,0.67-0.291
					c0.107-0.043,0.217-0.088,0.326-0.129c0.008-0.006,0.021-0.01,0.029-0.012c0.109-0.041,0.223-0.08,0.332-0.121
					c0.109-0.037,0.217-0.074,0.328-0.113c0.125-0.039,0.248-0.078,0.375-0.115c0.119-0.035,0.236-0.066,0.355-0.1
					c0.121-0.033,0.238-0.064,0.361-0.096c0.121-0.029,0.24-0.059,0.363-0.086c0.244-0.055,0.49-0.104,0.738-0.145
					c0.121-0.021,0.246-0.041,0.371-0.059c0.264-0.039,0.535-0.072,0.805-0.096c0.211-0.02,0.428-0.035,0.643-0.047
					c0.131-0.006,0.264-0.012,0.396-0.016c0.133-0.002,0.268-0.004,0.4-0.004h85.244c0.133,0,0.266,0.002,0.398,0.004
					c0.111,0.004,0.223,0.008,0.332,0.014c0.252,0.012,0.5,0.029,0.748,0.053h0.01c0.127,0.012,0.25,0.025,0.375,0.041
					c0.127,0.016,0.252,0.033,0.375,0.051c0.125,0.018,0.248,0.037,0.373,0.059s0.246,0.045,0.367,0.068
					c0.002-0.002,0.006-0.002,0.006,0c0.121,0.023,0.242,0.051,0.363,0.076c0.113,0.023,0.221,0.051,0.33,0.074
					c0.027,0.008,0.051,0.012,0.072,0.018c0.104,0.027,0.207,0.053,0.311,0.084c0.145,0.039,0.289,0.078,0.432,0.123
					c0.098,0.029,0.195,0.059,0.289,0.092c0.217,0.07,0.43,0.146,0.643,0.225c0.145,0.051,0.287,0.107,0.426,0.166
					c0.104,0.041,0.205,0.086,0.309,0.131c0.111,0.047,0.221,0.098,0.334,0.15c0.109,0.051,0.217,0.104,0.328,0.156
					c0.779,0.381,1.52,0.828,2.217,1.334c0.086,0.059,0.172,0.121,0.256,0.188c0.307,0.229,0.602,0.469,0.889,0.721
					c0.129,0.109,0.252,0.221,0.373,0.336c0.5,0.465,0.967,0.963,1.396,1.486c0.08,0.094,0.152,0.186,0.227,0.281
					c0.156,0.197,0.305,0.396,0.447,0.596c0.074,0.102,0.145,0.205,0.213,0.309c0.121,0.174,0.236,0.355,0.35,0.535
					c0.055,0.092,0.107,0.182,0.164,0.275c0.102,0.174,0.201,0.348,0.297,0.529c0.047,0.086,0.094,0.17,0.137,0.26
					c0.156,0.299,0.297,0.6,0.436,0.91c0.029,0.08,0.064,0.16,0.098,0.242c0.127,0.309,0.246,0.623,0.354,0.939
					c0.041,0.117,0.08,0.232,0.115,0.352c0.211,0.68,0.379,1.377,0.496,2.09c0.012,0.074,0.025,0.15,0.035,0.23
					c0.018,0.125,0.035,0.248,0.051,0.373c0.016,0.127,0.029,0.25,0.043,0.379c0.014,0.127,0.021,0.254,0.033,0.381
					c0.016,0.234,0.027,0.467,0.033,0.705c0.006,0.15,0.01,0.301,0.01,0.451V316.898z"/>
				<g>
					<linearGradient id="SVGID_16_" gradientUnits="userSpaceOnUse" x1="368.6689" y1="216.1147" x2="370.3852" y2="216.1147">
						<stop  offset="0" style="stop-color:#666666"/>
						<stop  offset="1" style="stop-color:#000000"/>
					</linearGradient>
					<path fill="url(#SVGID_16_)" d="M382.673,332.31c-0.123-0.012-0.248-0.021-0.373-0.039h-0.008
						c-0.246-0.027-0.488-0.063-0.729-0.105c-1.459-0.248-2.854-0.701-4.145-1.328c-0.092-0.045-0.182-0.088-0.273-0.133
						c-0.23-0.121-0.457-0.242-0.684-0.373c-0.104-0.059-0.203-0.117-0.305-0.18c-0.508-0.307-0.998-0.645-1.467-1.008
						c-0.086-0.066-0.168-0.131-0.25-0.199c-0.248-0.199-0.492-0.406-0.727-0.621c-0.076-0.07-0.152-0.141-0.227-0.215
						c-0.088-0.084-0.174-0.166-0.26-0.252c-0.084-0.084-0.168-0.172-0.252-0.258c-0.055-0.057-0.109-0.111-0.162-0.172
						c-0.068-0.072-0.137-0.146-0.201-0.221c-0.396-0.443-0.766-0.908-1.109-1.393c-0.061-0.086-0.119-0.174-0.18-0.26
						c-0.188-0.273-0.361-0.551-0.527-0.834c-0.061-0.102-0.121-0.205-0.178-0.309c-0.428-0.77-0.791-1.576-1.084-2.412
						c-0.041-0.115-0.08-0.229-0.115-0.344c-0.188-0.58-0.34-1.172-0.459-1.773c-0.023-0.123-0.047-0.244-0.068-0.365
						c-0.145-0.852-0.223-1.727-0.223-2.619v-201.51c0-8.295,6.561-15.088,14.764-15.469c-7.391,0.381-13.285,6.512-13.285,13.99
						v204.467C370.147,325.601,375.644,331.566,382.673,332.31z"/>
					<linearGradient id="SVGID_17_" gradientUnits="userSpaceOnUse" x1="483.4502" y1="216.1265" x2="485.1516" y2="216.1265">
						<stop  offset="0" style="stop-color:#000000"/>
						<stop  offset="1" style="stop-color:#666666"/>
					</linearGradient>
					<path fill="url(#SVGID_17_)" d="M484.894,115.388v201.51c0,1.658-0.264,3.258-0.748,4.758c-0.037,0.115-0.074,0.23-0.117,0.344
						c-0.037,0.115-0.08,0.227-0.123,0.34c-0.029,0.086-0.063,0.172-0.098,0.254c-0.1,0.252-0.207,0.5-0.32,0.744
						c-0.049,0.109-0.1,0.219-0.154,0.326c-0.072,0.15-0.146,0.299-0.227,0.447c-0.051,0.1-0.104,0.197-0.16,0.295
						c-0.057,0.104-0.113,0.207-0.176,0.311c-0.166,0.283-0.346,0.564-0.531,0.84c-0.059,0.086-0.117,0.174-0.18,0.26
						c-0.068,0.098-0.139,0.193-0.211,0.287c-0.066,0.098-0.141,0.191-0.213,0.285c-0.074,0.094-0.146,0.186-0.221,0.277
						s-0.15,0.184-0.23,0.275c-0.154,0.18-0.311,0.357-0.475,0.529c-0.246,0.266-0.504,0.523-0.773,0.775
						c-0.08,0.07-0.16,0.143-0.242,0.217c-0.188,0.166-0.377,0.326-0.568,0.486c-0.084,0.064-0.168,0.129-0.254,0.197
						c-0.281,0.219-0.57,0.426-0.867,0.623c-0.098,0.066-0.197,0.133-0.299,0.197c-0.199,0.129-0.404,0.25-0.611,0.369
						c-0.102,0.059-0.205,0.119-0.309,0.172c-0.334,0.184-0.674,0.355-1.023,0.508c-0.09,0.045-0.182,0.084-0.275,0.121
						c-0.107,0.051-0.217,0.094-0.33,0.139c-0.111,0.045-0.225,0.09-0.338,0.131c-0.25,0.096-0.504,0.184-0.762,0.264
						c-0.094,0.029-0.182,0.057-0.273,0.084c-0.336,0.1-0.684,0.188-1.031,0.264c-0.121,0.027-0.242,0.055-0.367,0.078
						c-0.127,0.025-0.258,0.051-0.391,0.07c-0.242,0.043-0.484,0.078-0.727,0.105h-0.01c-0.123,0.018-0.248,0.027-0.373,0.039
						c7.031-0.744,12.529-6.709,12.529-13.934V113.91c0-7.352-5.693-13.4-12.904-13.967
						C478.538,100.509,484.894,107.22,484.894,115.388z"/>
					<linearGradient id="SVGID_18_" gradientUnits="userSpaceOnUse" x1="426.7813" y1="333.8628" x2="426.7813" y2="320.2754">
						<stop  offset="0" style="stop-color:#959595"/>
						<stop  offset="1" style="stop-color:#000000"/>
					</linearGradient>
					<path fill="url(#SVGID_18_)" d="M484.894,316.898v1.479c0,8.541-6.949,15.486-15.488,15.486h-85.244
						c-8.541,0-15.492-6.945-15.492-15.486v-1.479c0,0.893,0.078,1.768,0.223,2.619c0.021,0.121,0.045,0.242,0.068,0.365
						c0.119,0.602,0.271,1.193,0.459,1.773c0.035,0.115,0.074,0.229,0.115,0.344c0.293,0.836,0.656,1.643,1.084,2.412
						c0.057,0.104,0.117,0.207,0.178,0.309c0.166,0.283,0.34,0.561,0.527,0.834c0.061,0.086,0.119,0.174,0.18,0.26
						c0.344,0.484,0.713,0.949,1.109,1.393c0.064,0.074,0.133,0.148,0.201,0.221c0.053,0.061,0.107,0.115,0.162,0.172
						c0.084,0.086,0.168,0.174,0.252,0.258c0.086,0.086,0.172,0.168,0.26,0.252c0.074,0.074,0.15,0.145,0.227,0.215
						c0.234,0.215,0.479,0.422,0.727,0.621c0.082,0.068,0.164,0.133,0.25,0.199c0.469,0.363,0.959,0.701,1.467,1.008
						c0.102,0.063,0.201,0.121,0.305,0.18c0.227,0.131,0.453,0.252,0.684,0.373c0.092,0.045,0.182,0.088,0.273,0.133
						c1.291,0.627,2.686,1.08,4.145,1.328c0.24,0.043,0.482,0.078,0.729,0.105h0.008c0.25,0.031,0.498,0.055,0.748,0.072
						c0.129,0.01,0.258,0.018,0.385,0.023c0.24,0.012,0.482,0.018,0.729,0.018h85.244c0.242,0,0.482-0.006,0.721-0.018
						c0.127-0.006,0.258-0.014,0.385-0.023c0.205-0.014,0.406-0.033,0.607-0.055c0.047-0.004,0.094-0.01,0.141-0.018h0.01
						c0.246-0.027,0.488-0.063,0.727-0.105c0.133-0.02,0.264-0.045,0.391-0.07c0.125-0.023,0.246-0.051,0.367-0.078
						c0.348-0.076,0.695-0.164,1.031-0.264c0.092-0.027,0.184-0.055,0.273-0.084c0.258-0.08,0.512-0.168,0.762-0.264
						c0.113-0.041,0.227-0.086,0.338-0.131c0.113-0.045,0.223-0.088,0.33-0.139c0.094-0.037,0.186-0.076,0.275-0.121
						c0.35-0.152,0.689-0.324,1.023-0.508c0.104-0.053,0.205-0.111,0.309-0.172c0.207-0.119,0.412-0.24,0.611-0.369
						c0.102-0.063,0.201-0.127,0.299-0.197c0.297-0.197,0.586-0.404,0.867-0.623c0.086-0.064,0.17-0.133,0.254-0.197
						c0.191-0.16,0.381-0.32,0.568-0.486c0.082-0.07,0.162-0.145,0.242-0.217c0.27-0.252,0.527-0.51,0.773-0.775
						c0.164-0.172,0.324-0.35,0.475-0.529c0.08-0.092,0.156-0.184,0.23-0.275c0.076-0.092,0.15-0.184,0.221-0.277
						c0.076-0.094,0.146-0.189,0.213-0.285c0.076-0.094,0.143-0.189,0.211-0.287c0.063-0.086,0.121-0.174,0.18-0.26
						c0.186-0.275,0.365-0.557,0.531-0.84c0.063-0.104,0.119-0.207,0.176-0.311c0.057-0.098,0.109-0.195,0.16-0.295
						c0.08-0.148,0.154-0.297,0.227-0.447c0.055-0.107,0.107-0.217,0.154-0.326c0.113-0.244,0.221-0.492,0.32-0.744
						c0.035-0.082,0.068-0.168,0.098-0.254c0.043-0.113,0.086-0.225,0.123-0.34c0.043-0.113,0.08-0.229,0.117-0.344
						C484.63,320.156,484.894,318.556,484.894,316.898z"/>
				</g>
				<linearGradient id="SVGID_19_" gradientUnits="userSpaceOnUse" x1="426.7813" y1="111.396" x2="426.7813" y2="94.4312">
					<stop  offset="0" style="stop-color:#000000"/>
					<stop  offset="1" style="stop-color:#808080"/>
				</linearGradient>
				<path fill="url(#SVGID_19_)" d="M484.894,113.91v1.479c0-8.039-6.156-14.668-14.008-15.412c-0.123-0.014-0.25-0.023-0.375-0.033
					c-0.127-0.01-0.258-0.018-0.385-0.023h-0.002c-0.24-0.012-0.477-0.018-0.719-0.018h-85.244c-0.242,0-0.482,0.006-0.719,0.018
					h-0.01c-8.203,0.381-14.764,7.174-14.764,15.469v-1.479c0-0.154,0.004-0.305,0.01-0.455c0-0.115,0.006-0.227,0.012-0.34
					c0.012-0.25,0.031-0.494,0.057-0.74c0.012-0.127,0.027-0.254,0.041-0.379c0.01-0.066,0.018-0.131,0.027-0.199
					c0.008-0.082,0.021-0.16,0.035-0.242c0.018-0.129,0.039-0.256,0.063-0.383c0.039-0.223,0.084-0.441,0.133-0.656
					c0.023-0.109,0.051-0.217,0.076-0.322c0.078-0.322,0.166-0.635,0.268-0.949c0.031-0.098,0.064-0.199,0.098-0.295
					c0.041-0.121,0.082-0.244,0.125-0.361c0.037-0.102,0.076-0.199,0.113-0.295c0.033-0.084,0.063-0.164,0.098-0.244
					c0.039-0.098,0.082-0.195,0.121-0.289c0.033-0.074,0.063-0.146,0.098-0.217c0.047-0.105,0.096-0.209,0.148-0.316
					c0.086-0.184,0.178-0.365,0.275-0.547c0.047-0.092,0.098-0.184,0.15-0.275c0.057-0.105,0.119-0.213,0.18-0.316
					c0.43-0.73,0.918-1.422,1.459-2.072c0.076-0.092,0.152-0.184,0.234-0.275c0.088-0.1,0.176-0.203,0.271-0.305
					c0.154-0.166,0.307-0.328,0.467-0.484c0.172-0.172,0.346-0.338,0.523-0.5c0.18-0.16,0.359-0.32,0.547-0.473
					c0.092-0.078,0.188-0.15,0.281-0.229c0.189-0.148,0.381-0.293,0.58-0.436c0.193-0.139,0.393-0.275,0.598-0.408
					c0.203-0.129,0.406-0.256,0.617-0.377c0.104-0.063,0.211-0.121,0.316-0.18c0.105-0.061,0.213-0.117,0.318-0.174
					c0.111-0.057,0.217-0.111,0.326-0.164c0.109-0.055,0.219-0.107,0.332-0.16c0.219-0.1,0.441-0.197,0.67-0.291
					c0.107-0.043,0.217-0.088,0.326-0.129c0.008-0.006,0.021-0.01,0.029-0.012c0.109-0.041,0.223-0.08,0.332-0.121
					c0.109-0.037,0.217-0.074,0.328-0.113c0.125-0.039,0.248-0.078,0.375-0.115c0.119-0.035,0.236-0.066,0.355-0.1
					c0.121-0.033,0.238-0.064,0.361-0.096c0.121-0.029,0.24-0.059,0.363-0.086c0.244-0.055,0.49-0.104,0.738-0.145
					c0.121-0.021,0.246-0.041,0.371-0.059c0.264-0.039,0.535-0.072,0.805-0.096c0.211-0.02,0.428-0.035,0.643-0.047
					c0.131-0.006,0.264-0.012,0.396-0.016c0.133-0.002,0.268-0.004,0.4-0.004h85.244c0.133,0,0.266,0.002,0.398,0.004
					c0.111,0.004,0.223,0.008,0.332,0.014c0.252,0.012,0.5,0.029,0.748,0.053h0.01c0.127,0.012,0.25,0.025,0.375,0.041
					c0.127,0.016,0.252,0.033,0.375,0.051c0.125,0.018,0.248,0.037,0.373,0.059s0.246,0.045,0.367,0.068
					c0.002-0.002,0.006-0.002,0.006,0c0.121,0.023,0.242,0.051,0.363,0.076c0.113,0.023,0.221,0.051,0.33,0.074
					c0.027,0.008,0.051,0.012,0.072,0.018c0.104,0.027,0.207,0.053,0.311,0.084c0.145,0.039,0.289,0.078,0.432,0.123
					c0.098,0.029,0.195,0.059,0.289,0.092c0.217,0.07,0.43,0.146,0.643,0.225c0.145,0.051,0.287,0.107,0.426,0.166
					c0.104,0.041,0.205,0.086,0.309,0.131c0.111,0.047,0.221,0.098,0.334,0.15c0.109,0.051,0.217,0.104,0.328,0.156
					c0.779,0.381,1.52,0.828,2.217,1.334c0.086,0.059,0.172,0.121,0.256,0.188c0.307,0.229,0.602,0.469,0.889,0.721
					c0.129,0.109,0.252,0.221,0.373,0.336c0.5,0.465,0.967,0.963,1.396,1.486c0.08,0.094,0.152,0.186,0.227,0.281
					c0.156,0.197,0.305,0.396,0.447,0.596c0.074,0.102,0.145,0.205,0.213,0.309c0.121,0.174,0.236,0.355,0.35,0.535
					c0.055,0.092,0.107,0.182,0.164,0.275c0.102,0.174,0.201,0.348,0.297,0.529c0.047,0.086,0.094,0.17,0.137,0.26
					c0.156,0.299,0.297,0.6,0.436,0.91c0.029,0.08,0.064,0.16,0.098,0.242c0.127,0.309,0.246,0.623,0.354,0.939
					c0.041,0.117,0.08,0.232,0.115,0.352c0.211,0.68,0.379,1.377,0.496,2.09c0.012,0.074,0.025,0.15,0.035,0.23
					c0.018,0.125,0.035,0.248,0.051,0.373c0.016,0.127,0.029,0.25,0.043,0.379c0.014,0.127,0.021,0.254,0.033,0.381
					c0.016,0.234,0.027,0.467,0.033,0.705C484.89,113.609,484.894,113.759,484.894,113.91z"/>
			</g>
			<g>
				<path d="M470.126,99.919h-0.002c-0.236-0.012-0.477-0.018-0.719-0.018h-85.244c-0.242,0-0.482,0.006-0.719,0.018h-0.01
					c-7.391,0.381-13.285,6.512-13.285,13.99v204.467c0,7.352,5.691,13.4,12.9,13.967c0.129,0.01,0.258,0.018,0.385,0.023
					c0.24,0.012,0.482,0.018,0.729,0.018h85.244c0.242,0,0.482-0.006,0.721-0.018c0.127-0.006,0.258-0.014,0.385-0.023
					c7.211-0.566,12.904-6.615,12.904-13.967V113.91C483.415,106.427,477.517,100.298,470.126,99.919z M482.231,318.376
					c0,6.646-5.189,12.266-11.803,12.787c-0.119,0.008-0.24,0.018-0.361,0.02c-0.219,0.012-0.441,0.02-0.662,0.02h-85.244
					c-0.225,0-0.449-0.008-0.672-0.02c-0.117-0.002-0.24-0.012-0.35-0.02c-6.621-0.521-11.809-6.141-11.809-12.787V113.91
					c0-6.818,5.326-12.441,12.135-12.807h0.006l0.029-0.006c0.215-0.008,0.438-0.014,0.66-0.014h85.244
					c0.221,0,0.443,0.006,0.658,0.014l0.021,0.006c6.814,0.355,12.146,5.98,12.146,12.807V318.376z"/>
			</g>
			<linearGradient id="SVGID_20_" gradientUnits="userSpaceOnUse" x1="478.0967" y1="216.2036" x2="482.2275" y2="216.2036">
				<stop  offset="0" style="stop-color:#F1F1F1"/>
				<stop  offset="0.0012" style="stop-color:#F0F0F0"/>
				<stop  offset="0.1385" style="stop-color:#B7B7B7"/>
				<stop  offset="0.2715" style="stop-color:#888888"/>
				<stop  offset="0.397" style="stop-color:#636363"/>
				<stop  offset="0.5134" style="stop-color:#494949"/>
				<stop  offset="0.6172" style="stop-color:#393939"/>
				<stop  offset="0.6978" style="stop-color:#333333"/>
			</linearGradient>
			<path fill="url(#SVGID_20_)" d="M482.228,113.994v204.465c0,1.266-0.188,2.496-0.537,3.658c-0.281,0.928-0.662,1.816-1.139,2.646
				c-0.098,0.172-0.201,0.34-0.305,0.508c-0.16,0.248-0.326,0.49-0.496,0.727c-0.492,0.668-1.045,1.285-1.65,1.852
				c1.119-1.959,1.762-4.23,1.762-6.631v-2.357c0.006-0.139,0.008-0.281,0.008-0.422V113.972c0-0.146-0.002-0.289-0.008-0.432
				v-2.307c0-2.432-0.643-4.713-1.766-6.676C480.644,106.906,482.228,110.273,482.228,113.994z"/>
			<g>
				<path d="M470.022,102.283l-0.053-0.004c-0.186-0.008-0.375-0.012-0.564-0.012h-85.244c-0.195,0-0.389,0.004-0.576,0.014
					l-0.059,0.004h-0.029c-6.16,0.348-10.982,5.449-10.982,11.625v204.467c0,6.035,4.709,11.135,10.723,11.607
					c0.088,0.008,0.186,0.016,0.281,0.018l0.035,0.002c0.199,0.01,0.404,0.016,0.607,0.016h85.244c0.201,0,0.4-0.006,0.6-0.016
					l0.035-0.002c0.1-0.002,0.201-0.01,0.297-0.018c6.006-0.473,10.711-5.572,10.711-11.607V113.91
					C481.048,107.714,476.204,102.609,470.022,102.283z M477.944,318.376c0,4.426-3.449,8.166-7.852,8.512
					c-0.041,0.004-0.084,0.008-0.125,0.008h-0.027l-0.025,0.004h-0.037l-0.021,0.002h-0.02c-0.143,0.008-0.287,0.012-0.432,0.012
					h-85.244c-0.148,0-0.297-0.004-0.443-0.012H383.7l-0.018-0.002h-0.033l-0.025-0.002l-0.027-0.002
					c-0.037,0-0.074-0.004-0.117-0.008c-4.406-0.346-7.859-4.086-7.859-8.512V113.91c0-4.5,3.496-8.225,7.973-8.52h0.076
					l0.115-0.012c0.139-0.004,0.262-0.006,0.377-0.006h85.244c0.115,0,0.24,0.002,0.383,0.006l0.031,0.002l0.041,0.004
					c4.533,0.238,8.084,3.982,8.084,8.525V318.376z"/>
				<path d="M455.763,105.373v1.113c0,3.754-3.043,6.797-6.795,6.797h-44.371c-3.754,0-6.797-3.043-6.797-6.797v-1.113H455.763z"/>
			</g>
			<path d="M455.763,105.373v1.117c0,3.752-3.043,6.795-6.795,6.795h-44.371c-3.754,0-6.797-3.043-6.797-6.795v-1.117H455.763z"/>
			<g>
				<linearGradient id="SVGID_21_" gradientUnits="userSpaceOnUse" x1="373.7041" y1="324.8521" x2="479.8623" y2="324.8521">
					<stop  offset="0" style="stop-color:#1A1A1A"/>
					<stop  offset="0.1173" style="stop-color:#454545"/>
					<stop  offset="0.2314" style="stop-color:#666666"/>
					<stop  offset="0.3395" style="stop-color:#7E7E7E"/>
					<stop  offset="0.4393" style="stop-color:#8D8D8D"/>
					<stop  offset="0.5229" style="stop-color:#929292"/>
					<stop  offset="0.5926" style="stop-color:#8B8B8B"/>
					<stop  offset="0.6974" style="stop-color:#767676"/>
					<stop  offset="0.8246" style="stop-color:#545454"/>
					<stop  offset="0.968" style="stop-color:#252525"/>
					<stop  offset="1" style="stop-color:#1A1A1A"/>
				</linearGradient>
				<path fill="url(#SVGID_21_)" d="M479.862,318.861v2.357c0,2.4-0.643,4.672-1.762,6.631c-2.051,1.898-4.717,3.143-7.666,3.377
					c-0.117,0.008-0.238,0.018-0.361,0.021c-0.217,0.01-0.439,0.018-0.662,0.018h-85.244c-0.225,0-0.451-0.008-0.672-0.018
					c-0.119-0.004-0.238-0.014-0.35-0.021c-0.162-0.012-0.324-0.031-0.486-0.051c-2.758-0.322-5.244-1.531-7.178-3.324
					c-1.131-1.963-1.777-4.244-1.777-6.654v-2.758c0,3.148,1.43,6.018,3.682,7.945c1.627,1.396,3.686,2.303,5.947,2.482
					c0.074,0.006,0.146,0.014,0.221,0.014l0.033,0.002h0.033c0.18,0.01,0.363,0.016,0.547,0.016h85.244
					c0.178,0,0.357-0.006,0.535-0.016h0.035l0.035-0.002c0.082,0,0.16-0.008,0.24-0.014
					C475.503,328.455,479.649,324.099,479.862,318.861z"/>
				<linearGradient id="SVGID_22_" gradientUnits="userSpaceOnUse" x1="373.7041" y1="107.5698" x2="482.2373" y2="107.5698">
					<stop  offset="0" style="stop-color:#1A1A1A"/>
					<stop  offset="0.1173" style="stop-color:#454545"/>
					<stop  offset="0.2314" style="stop-color:#666666"/>
					<stop  offset="0.3395" style="stop-color:#7E7E7E"/>
					<stop  offset="0.4393" style="stop-color:#8D8D8D"/>
					<stop  offset="0.5229" style="stop-color:#929292"/>
					<stop  offset="0.5926" style="stop-color:#8B8B8B"/>
					<stop  offset="0.6974" style="stop-color:#767676"/>
					<stop  offset="0.8246" style="stop-color:#545454"/>
					<stop  offset="0.968" style="stop-color:#252525"/>
					<stop  offset="1" style="stop-color:#1A1A1A"/>
				</linearGradient>
				<path fill="url(#SVGID_22_)" d="M482.228,113.994l0.01-0.021c0-6.826-5.332-12.451-12.146-12.809l-0.02-0.004
					c-0.215-0.008-0.438-0.014-0.66-0.014h-85.244c-0.223,0-0.445,0.006-0.66,0.014l-0.029,0.004h-0.006
					c-0.277,0.016-0.551,0.039-0.822,0.072c-2.766,0.324-5.25,1.521-7.18,3.303c-1.125,1.961-1.766,4.244-1.766,6.676v2.758
					c0-3.176,1.42-6.035,3.674-7.961c1.674-1.43,3.805-2.342,6.162-2.482h0.057l0.076-0.008c0.182-0.006,0.342-0.01,0.494-0.01
					h85.244c0.137,0,0.285,0.004,0.445,0.01h0.004l0.107,0.006c5.408,0.283,9.676,4.643,9.895,10.014v-2.307
					c0-2.432-0.643-4.713-1.766-6.676C480.644,106.906,482.228,110.273,482.228,113.994z"/>
				<linearGradient id="SVGID_23_" gradientUnits="userSpaceOnUse" x1="371.3311" y1="216.1333" x2="373.7818" y2="216.1333">
					<stop  offset="0" style="stop-color:#C8C8C8"/>
					<stop  offset="0.2107" style="stop-color:#A0A0A0"/>
					<stop  offset="0.5867" style="stop-color:#5D5D5D"/>
					<stop  offset="0.8599" style="stop-color:#343434"/>
					<stop  offset="1" style="stop-color:#242424"/>
				</linearGradient>
				<path fill="url(#SVGID_23_)" d="M375.474,327.791c-2.549-2.361-4.143-5.73-4.143-9.414V113.91c0-3.721,1.586-7.086,4.133-9.434
					c-1.123,1.961-1.766,4.244-1.766,6.676v209.982C373.698,323.544,374.345,325.826,375.474,327.791z"/>
				<linearGradient id="SVGID_24_" gradientUnits="userSpaceOnUse" x1="478.085" y1="216.2153" x2="482.2275" y2="216.2153">
					<stop  offset="0" style="stop-color:#242424"/>
					<stop  offset="0.1401" style="stop-color:#343434"/>
					<stop  offset="0.4133" style="stop-color:#5D5D5D"/>
					<stop  offset="0.7893" style="stop-color:#A0A0A0"/>
					<stop  offset="1" style="stop-color:#C8C8C8"/>
				</linearGradient>
				<path fill="url(#SVGID_24_)" d="M482.228,113.994v204.465c0,1.266-0.188,2.496-0.537,3.658
					c-0.281,0.928-0.662,1.816-1.139,2.646c-0.098,0.172-0.201,0.34-0.305,0.508c-0.154,0.248-0.32,0.49-0.496,0.727
					c-0.492,0.676-1.051,1.307-1.666,1.875c0.006-0.01,0.01-0.016,0.016-0.023c1.119-1.959,1.762-4.23,1.762-6.631V111.234
					c0-2.432-0.643-4.713-1.766-6.676C480.644,106.906,482.228,110.273,482.228,113.994z"/>
			</g>
		</g>
		<g>
			<linearGradient id="SVGID_25_" gradientUnits="userSpaceOnUse" x1="419.6221" y1="107.0054" x2="433.2256" y2="107.0054">
				<stop  offset="0" style="stop-color:#333333"/>
				<stop  offset="0.0901" style="stop-color:#2B2B2B"/>
				<stop  offset="0.2885" style="stop-color:#1E1E1E"/>
				<stop  offset="0.4787" style="stop-color:#1A1A1A"/>
				<stop  offset="0.7885" style="stop-color:#1C1C1C"/>
				<stop  offset="0.8999" style="stop-color:#232323"/>
				<stop  offset="0.9792" style="stop-color:#2E2E2E"/>
				<stop  offset="1" style="stop-color:#333333"/>
			</linearGradient>
			<path fill="url(#SVGID_25_)" d="M432.751,107.72h-12.654c-0.262,0-0.475-0.213-0.475-0.475v-0.48
				c0-0.262,0.213-0.475,0.475-0.475h12.654c0.262,0,0.475,0.213,0.475,0.475v0.48C433.226,107.507,433.013,107.72,432.751,107.72z"
				/>
		</g>
	</g>
	<g>
		<defs>
			<path id="SVGID_109_" d="M469.97,105.39h-0.076l-0.115-0.012c-0.137-0.006-0.26-0.006-0.375-0.006h-12.301
				c-0.703,0.037-1.271,0.58-1.344,1.277c-0.002,0.047-0.004,0.094-0.004,0.143v0.018c-0.17,3.605-3.145,6.475-6.787,6.475H427.97
				h-2.377h-20.996c-3.645,0-6.619-2.869-6.787-6.475v-0.018c0-0.049-0.004-0.096-0.006-0.143c-0.072-0.697-0.639-1.24-1.344-1.277
				h-12.299c-0.115,0-0.24,0-0.377,0.006l-0.115,0.012h-0.076c-4.477,0.295-7.973,4.02-7.973,8.521v204.465
				c0,4.424,3.453,8.166,7.859,8.512c0.045,0.004,0.08,0.008,0.117,0.008h0.027l0.025,0.004h0.051l0.016,0.004
				c0.148,0.006,0.297,0.012,0.445,0.012h41.432h2.377h41.434c0.146,0,0.295-0.006,0.443-0.012l0.018-0.004h0.051l0.023-0.004h0.027
				c0.037,0,0.072-0.004,0.115-0.008c4.408-0.346,7.863-4.088,7.863-8.512V113.912C477.944,109.41,474.448,105.685,469.97,105.39z"
				/>
		</defs>
		<clipPath id="SVGID_26_">
			<use xlink:href="#SVGID_109_"  overflow="visible"/>
		</clipPath>
	</g>
	<g>
		<defs>
			<path id="SVGID_111_" d="M469.97,105.376h-0.078l-0.115-0.014c-0.135-0.004-0.26-0.004-0.375-0.004h-12.301
				c-0.703,0.035-1.271,0.578-1.342,1.273c-0.004,0.047-0.006,0.094-0.006,0.146v0.018c-0.168,3.604-3.143,6.473-6.789,6.473
				h-20.996h-2.379h-20.996c-3.646,0-6.621-2.869-6.789-6.473v-0.018c0-0.053-0.004-0.1-0.006-0.146
				c-0.07-0.695-0.639-1.238-1.344-1.273h-12.299c-0.115,0-0.24,0-0.375,0.004l-0.115,0.014h-0.078
				c-4.477,0.291-7.973,4.02-7.973,8.52v204.477c0,4.426,3.455,8.166,7.861,8.512c0.043,0.004,0.078,0.006,0.115,0.008h0.029
				l0.023,0.004h0.051l0.018,0.004c0.148,0.006,0.295,0.01,0.443,0.01h41.434h2.379h41.434c0.148,0,0.295-0.004,0.443-0.01
				l0.018-0.004h0.051l0.023-0.004h0.029c0.037-0.002,0.072-0.004,0.115-0.008c4.408-0.346,7.861-4.086,7.861-8.512V113.896
				C477.942,109.396,474.446,105.667,469.97,105.376z"/>
		</defs>
		<linearGradient id="SVGID_27_" gradientUnits="userSpaceOnUse" x1="348.3145" y1="137.6606" x2="505.2445" y2="294.5907">
			<stop  offset="0" style="stop-color:#F2F3F4"/>
			<stop  offset="0.3559" style="stop-color:#EDEEEF"/>
			<stop  offset="0.7827" style="stop-color:#DFE0E0"/>
			<stop  offset="1" style="stop-color:#D5D6D6"/>
		</linearGradient>
		<use xlink:href="#SVGID_111_"  overflow="visible" fill="url(#SVGID_27_)"/>
		<clipPath id="SVGID_28_">
			<use xlink:href="#SVGID_111_"  overflow="visible"/>
		</clipPath>
	</g>
	<g>
		<defs>
			<path id="SVGID_114_" d="M469.97,105.376h-0.078l-0.115-0.014c-0.135-0.004-0.26-0.004-0.375-0.004h-12.301
				c-0.703,0.035-1.271,0.578-1.342,1.273c-0.004,0.047-0.006,0.094-0.006,0.146v0.018c-0.168,3.604-3.143,6.473-6.789,6.473
				h-20.996h-2.379h-20.996c-3.646,0-6.621-2.869-6.789-6.473v-0.018c0-0.053-0.004-0.1-0.006-0.146
				c-0.07-0.695-0.639-1.238-1.344-1.273h-12.299c-0.115,0-0.24,0-0.375,0.004l-0.115,0.014h-0.078
				c-4.477,0.291-7.973,4.02-7.973,8.52v204.477c0,4.426,3.455,8.166,7.861,8.512c0.043,0.004,0.078,0.006,0.115,0.008h0.029
				l0.023,0.004h0.051l0.018,0.004c0.148,0.006,0.295,0.01,0.443,0.01h41.434h2.379h41.434c0.148,0,0.295-0.004,0.443-0.01
				l0.018-0.004h0.051l0.023-0.004h0.029c0.037-0.002,0.072-0.004,0.115-0.008c4.408-0.346,7.861-4.086,7.861-8.512V113.896
				C477.942,109.396,474.446,105.667,469.97,105.376z"/>
		</defs>
		<clipPath id="SVGID_29_">
			<use xlink:href="#SVGID_114_"  overflow="visible"/>
		</clipPath>
		<g transform="matrix(1 0 0 1 0 -7.629395e-006)" clip-path="url(#SVGID_29_)">
			
				<image overflow="visible" width="392" height="576" xlink:href="../포트폴리오/20210314_141511.png"  transform="matrix(0.3269 0 0 0.3856 359.0811 105.3276)">
			</image>
		</g>
	</g>
	<defs>
		<filter id="Adobe_OpacityMaskFilter_6_" filterUnits="userSpaceOnUse" x="367.335" y="97.98" width="118.885" height="238.035">
			<feFlood  style="flood-color:white;flood-opacity:1" result="back"/>
			<feBlend  in="SourceGraphic" in2="back" mode="normal"/>
		</filter>
	</defs>
	<mask maskUnits="userSpaceOnUse" x="367.335" y="97.98" width="118.885" height="238.035" id="SVGID_30_">
		<g filter="url(#Adobe_OpacityMaskFilter_6_)">
			<defs>
				<filter id="Adobe_OpacityMaskFilter_7_" filterUnits="userSpaceOnUse" x="367.335" y="97.98" width="118.885" height="238.035">
					<feFlood  style="flood-color:white;flood-opacity:1" result="back"/>
					<feBlend  in="SourceGraphic" in2="back" mode="normal"/>
				</filter>
			</defs>
			<mask maskUnits="userSpaceOnUse" x="367.335" y="97.98" width="118.885" height="238.035" id="SVGID_30_">
			</mask>
			<linearGradient id="SVGID_31_" gradientUnits="userSpaceOnUse" x1="365.54" y1="324.8179" x2="534.1876" y2="156.1703">
				<stop  offset="0.3633" style="stop-color:#000000"/>
				<stop  offset="0.5449" style="stop-color:#020202"/>
				<stop  offset="0.6326" style="stop-color:#0A0A0A"/>
				<stop  offset="0.7001" style="stop-color:#171717"/>
				<stop  offset="0.7573" style="stop-color:#292929"/>
				<stop  offset="0.808" style="stop-color:#414141"/>
				<stop  offset="0.8541" style="stop-color:#5F5F5F"/>
				<stop  offset="0.8967" style="stop-color:#828282"/>
				<stop  offset="0.9367" style="stop-color:#ABABAB"/>
				<stop  offset="0.973" style="stop-color:#D8D8D8"/>
				<stop  offset="1" style="stop-color:#FFFFFF"/>
			</linearGradient>
			<path mask="url(#SVGID_30_)" fill="url(#SVGID_31_)" d="M486.071,153.023c-0.076-0.072-0.18-0.115-0.295-0.115
				c-0.25,0-0.449,0.197-0.449,0.449v-39.395c0-8.359-6.381-15.223-14.537-15.982L367.335,201.433v118.533
				c0,8.863,7.188,16.049,16.051,16.049h85.895c8.861,0,16.047-7.186,16.047-16.049V179.8c0,0.246,0.199,0.443,0.449,0.443
				c0.115,0,0.219-0.043,0.295-0.115c0.096-0.082,0.148-0.197,0.148-0.328v-26.443C486.22,153.226,486.167,153.105,486.071,153.023z
				 M369.526,322.644v-0.023c0,0.012,0,0.023,0.004,0.033C369.53,322.648,369.53,322.648,369.526,322.644z M369.745,323.585
				l0.006,0.004c0,0.018,0.004,0.029,0.004,0.039C369.755,323.613,369.751,323.595,369.745,323.585z M371.956,328.238
				c0.004,0.004,0.016,0.016,0.021,0.021c0.027,0.039,0.049,0.076,0.078,0.115C372.022,328.324,371.989,328.281,371.956,328.238z
				 M379.745,333.603c0.109,0.031,0.219,0.059,0.328,0.082c0.039,0.01,0.076,0.021,0.115,0.031
				C380.034,333.677,379.888,333.646,379.745,333.603z M380.999,333.88h0.033c0.119,0.023,0.24,0.039,0.359,0.055
				c0.039,0.012,0.078,0.018,0.121,0.021C381.339,333.935,381.169,333.908,380.999,333.88z M470.997,333.986c0,0,0,0,0.006-0.006
				c0.045,0,0.094-0.006,0.143-0.012C471.097,333.974,471.048,333.98,470.997,333.986z M480.812,105.845
				c-0.012-0.018-0.016-0.033-0.025-0.051c0.025,0.045,0.053,0.084,0.086,0.127C480.851,105.894,480.835,105.867,480.812,105.845z"
				/>
		</g>
	</mask>
	<linearGradient id="SVGID_32_" gradientUnits="userSpaceOnUse" x1="365.54" y1="324.8179" x2="534.1876" y2="156.1703">
		<stop  offset="0.3633" style="stop-color:#FFFFFF"/>
		<stop  offset="0.9064" style="stop-color:#FFFFFF"/>
		<stop  offset="1" style="stop-color:#FFFFFF"/>
	</linearGradient>
	<path opacity="0.2" fill="url(#SVGID_32_)" d="M486.071,153.023c-0.076-0.072-0.18-0.115-0.295-0.115
		c-0.25,0-0.449,0.197-0.449,0.449v-39.395c0-8.359-6.381-15.223-14.537-15.982L367.335,201.433v118.533
		c0,8.863,7.188,16.049,16.051,16.049h85.895c8.861,0,16.047-7.186,16.047-16.049V179.8c0,0.246,0.199,0.443,0.449,0.443
		c0.115,0,0.219-0.043,0.295-0.115c0.096-0.082,0.148-0.197,0.148-0.328v-26.443C486.22,153.226,486.167,153.105,486.071,153.023z
		 M369.526,322.644v-0.023c0,0.012,0,0.023,0.004,0.033C369.53,322.648,369.53,322.648,369.526,322.644z M369.745,323.585
		l0.006,0.004c0,0.018,0.004,0.029,0.004,0.039C369.755,323.613,369.751,323.595,369.745,323.585z M371.956,328.238
		c0.004,0.004,0.016,0.016,0.021,0.021c0.027,0.039,0.049,0.076,0.078,0.115C372.022,328.324,371.989,328.281,371.956,328.238z
		 M379.745,333.603c0.109,0.031,0.219,0.059,0.328,0.082c0.039,0.01,0.076,0.021,0.115,0.031
		C380.034,333.677,379.888,333.646,379.745,333.603z M380.999,333.88h0.033c0.119,0.023,0.24,0.039,0.359,0.055
		c0.039,0.012,0.078,0.018,0.121,0.021C381.339,333.935,381.169,333.908,380.999,333.88z M470.997,333.986c0,0,0,0,0.006-0.006
		c0.045,0,0.094-0.006,0.143-0.012C471.097,333.974,471.048,333.98,470.997,333.986z M480.812,105.845
		c-0.012-0.018-0.016-0.033-0.025-0.051c0.025,0.045,0.053,0.084,0.086,0.127C480.851,105.894,480.835,105.867,480.812,105.845z"/>
	<g>
		<defs>
			<path id="SVGID_119_" d="M469.97,105.376h-0.078l-0.115-0.014c-0.135-0.004-0.26-0.004-0.375-0.004h-12.301
				c-0.703,0.035-1.271,0.578-1.342,1.273c-0.004,0.047-0.006,0.094-0.006,0.146v0.018c-0.168,3.604-3.143,6.473-6.789,6.473
				h-20.996h-2.379h-20.996c-3.646,0-6.621-2.869-6.789-6.473v-0.018c0-0.053-0.004-0.1-0.006-0.146
				c-0.07-0.695-0.639-1.238-1.344-1.273h-12.299c-0.115,0-0.24,0-0.375,0.004l-0.115,0.014h-0.078
				c-4.477,0.291-7.973,4.02-7.973,8.52v204.477c0,4.426,3.455,8.166,7.861,8.512c0.043,0.004,0.078,0.006,0.115,0.008h0.029
				l0.023,0.004h0.051l0.018,0.004c0.148,0.006,0.295,0.01,0.443,0.01h41.434h2.379h41.434c0.148,0,0.295-0.004,0.443-0.01
				l0.018-0.004h0.051l0.023-0.004h0.029c0.037-0.002,0.072-0.004,0.115-0.008c4.408-0.346,7.861-4.086,7.861-8.512V113.896
				C477.942,109.396,474.446,105.667,469.97,105.376z"/>
		</defs>
		<clipPath id="SVGID_33_">
			<use xlink:href="#SVGID_119_"  overflow="visible"/>
		</clipPath>
		<g clip-path="url(#SVGID_33_)">
			<defs>
				<rect id="SVGID_121_" x="375.275" y="103.71" width="104.694" height="225.918"/>
			</defs>
			<clipPath id="SVGID_34_">
				<use xlink:href="#SVGID_121_"  overflow="visible"/>
			</clipPath>
			<g transform="matrix(1 0 0 1 0 -9.536743e-007)" clip-path="url(#SVGID_34_)">
				
					<image overflow="visible" width="1920" height="4548" xlink:href="uiux/KakaoTalk_20210209_125515673.jpg"  transform="matrix(0.4226 0 0 0.4226 -274.4424 -10.9673)">
				</image>
			</g>
		</g>
	</g>
</g>
</svg>
