<?xml version="1.0" encoding="utf-8"?>
<!-- Generator: Adobe Illustrator 16.0.0, SVG Export Plug-In . SVG Version: 6.00 Build 0)  -->
<!DOCTYPE svg PUBLIC "-//W3C//DTD SVG 1.1//EN" "http://www.w3.org/Graphics/SVG/1.1/DTD/svg11.dtd">
<svg version="1.1" xmlns="http://www.w3.org/2000/svg" xmlns:xlink="http://www.w3.org/1999/xlink" x="0px" y="0px"
	 width="491.777px" height="334.448px" viewBox="0 0 491.777 334.448" enable-background="new 0 0 491.777 334.448"
	 xml:space="preserve">
<g id="object">
	<g>
		<g>
			<g>
				<g>
					<g>
						<g>
							<linearGradient id="SVGID_1_" gradientUnits="userSpaceOnUse" x1="187.5693" y1="332.4937" x2="317.5068" y2="332.4937">
								<stop  offset="0" style="stop-color:#808080"/>
								<stop  offset="0.0504" style="stop-color:#8A8A8A"/>
								<stop  offset="0.1361" style="stop-color:#A5A5A5"/>
								<stop  offset="0.1607" style="stop-color:#AEAEAE"/>
								<stop  offset="0.2758" style="stop-color:#CACACA"/>
								<stop  offset="0.3866" style="stop-color:#E1E1E1"/>
								<stop  offset="0.6478" style="stop-color:#DCDEE0"/>
								<stop  offset="0.7315" style="stop-color:#CBCCCE"/>
								<stop  offset="0.8985" style="stop-color:#9E9F9F"/>
								<stop  offset="1" style="stop-color:#808080"/>
							</linearGradient>
							<path fill="url(#SVGID_1_)" d="M317.507,330.543v1.705c-0.033,1.121-0.898,2.195-2.268,2.195H189.837
								c-1.367,0-2.232-1.074-2.268-2.195v-0.063c0-0.594,0.242-1.191,0.768-1.643H317.507z"/>
							<linearGradient id="SVGID_2_" gradientUnits="userSpaceOnUse" x1="150.5684" y1="331.3647" x2="280.4211" y2="331.3647">
								<stop  offset="0" style="stop-color:#808080"/>
								<stop  offset="0.0504" style="stop-color:#8A8A8A"/>
								<stop  offset="0.1361" style="stop-color:#A5A5A5"/>
								<stop  offset="0.1607" style="stop-color:#AEAEAE"/>
								<stop  offset="0.2758" style="stop-color:#CACACA"/>
								<stop  offset="0.3866" style="stop-color:#E1E1E1"/>
								<stop  offset="0.6478" style="stop-color:#DCDEE0"/>
								<stop  offset="0.7315" style="stop-color:#CBCCCE"/>
								<stop  offset="0.8985" style="stop-color:#9E9F9F"/>
								<stop  offset="1" style="stop-color:#808080"/>
							</linearGradient>
							<path fill="url(#SVGID_2_)" d="M151.336,330.543c-0.525,0.451-0.768,1.049-0.768,1.643v-1.643H151.336z"/>
						</g>
						<g>
							<linearGradient id="SVGID_3_" gradientUnits="userSpaceOnUse" x1="252.5381" y1="332.8247" x2="252.5381" y2="270.6567">
								<stop  offset="0" style="stop-color:#C7C7C7"/>
								<stop  offset="0.1632" style="stop-color:#AEAEAE"/>
								<stop  offset="0.1982" style="stop-color:#979797"/>
								<stop  offset="0.2386" style="stop-color:#808080"/>
								<stop  offset="0.2627" style="stop-color:#8A8A8A"/>
								<stop  offset="0.3037" style="stop-color:#A5A5A5"/>
								<stop  offset="0.3564" style="stop-color:#D1D1D1"/>
								<stop  offset="0.3866" style="stop-color:#EDEDED"/>
								<stop  offset="0.6478" style="stop-color:#DCDEE0"/>
								<stop  offset="0.7315" style="stop-color:#CBCCCE"/>
								<stop  offset="0.8985" style="stop-color:#9E9F9F"/>
								<stop  offset="1" style="stop-color:#808080"/>
							</linearGradient>
							<path fill="url(#SVGID_3_)" d="M315.238,332.825H189.836c-2.203,0-3.111-2.799-1.311-4.059l12.584-8.822
								c2.365-1.66,3.885-4.252,4.162-7.102l4.107-42.186h86.318l4.107,42.186c0.277,2.85,1.795,5.441,4.162,7.102l12.584,8.822
								C318.352,330.026,317.443,332.825,315.238,332.825z"/>
						</g>
						<g>
							<defs>
								
									<filter id="Adobe_OpacityMaskFilter" filterUnits="userSpaceOnUse" x="187.568" y="330.546" width="129.939" height="3.901">
									<feFlood  style="flood-color:white;flood-opacity:1" result="back"/>
									<feBlend  in="SourceGraphic" in2="back" mode="normal"/>
								</filter>
							</defs>
							<mask maskUnits="userSpaceOnUse" x="187.568" y="330.546" width="129.939" height="3.901" id="SVGID_4_">
								<g filter="url(#Adobe_OpacityMaskFilter)">
									<defs>
										
											<filter id="Adobe_OpacityMaskFilter_1_" filterUnits="userSpaceOnUse" x="187.568" y="330.546" width="129.939" height="3.901">
											<feFlood  style="flood-color:white;flood-opacity:1" result="back"/>
											<feBlend  in="SourceGraphic" in2="back" mode="normal"/>
										</filter>
									</defs>
									<mask maskUnits="userSpaceOnUse" x="187.568" y="330.546" width="129.939" height="3.901" id="SVGID_4_">
									</mask>
									<linearGradient id="SVGID_5_" gradientUnits="userSpaceOnUse" x1="252.5381" y1="334.4458" x2="252.5381" y2="330.5454">
										<stop  offset="0" style="stop-color:#FFFFFF"/>
										<stop  offset="0.0353" style="stop-color:#E1E1E1"/>
										<stop  offset="0.0985" style="stop-color:#B3B3B3"/>
										<stop  offset="0.1674" style="stop-color:#888888"/>
										<stop  offset="0.2405" style="stop-color:#636363"/>
										<stop  offset="0.3187" style="stop-color:#444444"/>
										<stop  offset="0.4037" style="stop-color:#2B2B2B"/>
										<stop  offset="0.4983" style="stop-color:#181818"/>
										<stop  offset="0.6076" style="stop-color:#0A0A0A"/>
										<stop  offset="0.7449" style="stop-color:#020202"/>
										<stop  offset="1" style="stop-color:#000000"/>
									</linearGradient>
									<path mask="url(#SVGID_4_)" fill="url(#SVGID_5_)" d="M317.508,330.545v1.705c-0.035,1.121-0.902,2.195-2.27,2.195H189.836
										c-1.367,0-2.232-1.074-2.268-2.195v-1.705H317.508z"/>
								</g>
							</mask>
							<linearGradient id="SVGID_6_" gradientUnits="userSpaceOnUse" x1="252.5381" y1="334.4458" x2="252.5381" y2="330.5454">
								<stop  offset="0" style="stop-color:#666666"/>
								<stop  offset="0.0358" style="stop-color:#787878"/>
								<stop  offset="0.1188" style="stop-color:#9C9C9C"/>
								<stop  offset="0.2095" style="stop-color:#BBBBBB"/>
								<stop  offset="0.3081" style="stop-color:#D4D4D4"/>
								<stop  offset="0.4178" style="stop-color:#E7E7E7"/>
								<stop  offset="0.5447" style="stop-color:#F5F5F5"/>
								<stop  offset="0.704" style="stop-color:#FDFDFD"/>
								<stop  offset="1" style="stop-color:#FFFFFF"/>
							</linearGradient>
							<path fill="url(#SVGID_6_)" d="M317.508,330.545v1.705c-0.035,1.121-0.902,2.195-2.27,2.195H189.836
								c-1.367,0-2.232-1.074-2.268-2.195v-1.705H317.508z"/>
						</g>
					</g>
					<g>
						<g>
							<path fill="#333333" d="M491.777,10.419v253.005c0,5.754-4.666,10.42-10.42,10.42H10.42c-5.754,0-10.42-4.666-10.42-10.42
								V10.419c0-5.756,4.666-10.42,10.42-10.42h470.938C487.111-0.001,491.777,4.663,491.777,10.419z"/>
							<path d="M491.777,10.79v253.009c0,5.752-4.666,10.416-10.42,10.416H10.42c-5.754,0-10.42-4.664-10.42-10.416V10.79
								C0,5.034,4.666,0.37,10.42,0.37h470.938C487.111,0.37,491.777,5.034,491.777,10.79z"/>
						</g>
						<linearGradient id="SVGID_7_" gradientUnits="userSpaceOnUse" x1="0" y1="254.3335" x2="491.7754" y2="254.3335">
							<stop  offset="0" style="stop-color:#A2A4A8"/>
							<stop  offset="0.084" style="stop-color:#B1B3B7"/>
							<stop  offset="0.2266" style="stop-color:#C4C6C9"/>
							<stop  offset="0.393" style="stop-color:#D2D4D6"/>
							<stop  offset="0.6031" style="stop-color:#DADCDE"/>
							<stop  offset="1" style="stop-color:#DCDEE0"/>
						</linearGradient>
						<path fill="url(#SVGID_7_)" d="M491.775,234.45v29.352c0,2.648-0.988,5.066-2.621,6.902c-1.904,2.156-4.691,3.514-7.799,3.514
							H10.42c-3.107,0-5.895-1.357-7.799-3.514C0.988,268.868,0,266.45,0,263.801V234.45H491.775z"/>
						<defs>
							
								<filter id="Adobe_OpacityMaskFilter_2_" filterUnits="userSpaceOnUse" x="2.621" y="270.706" width="486.533" height="3.513">
								<feFlood  style="flood-color:white;flood-opacity:1" result="back"/>
								<feBlend  in="SourceGraphic" in2="back" mode="normal"/>
							</filter>
						</defs>
						<mask maskUnits="userSpaceOnUse" x="2.621" y="270.706" width="486.533" height="3.513" id="SVGID_8_">
							<g filter="url(#Adobe_OpacityMaskFilter_2_)">
								<defs>
									
										<filter id="Adobe_OpacityMaskFilter_3_" filterUnits="userSpaceOnUse" x="2.621" y="270.706" width="425.832" height="3.513">
										<feFlood  style="flood-color:white;flood-opacity:1" result="back"/>
										<feBlend  in="SourceGraphic" in2="back" mode="normal"/>
									</filter>
								</defs>
								<mask maskUnits="userSpaceOnUse" x="2.621" y="270.706" width="425.832" height="3.513" id="SVGID_8_">
								</mask>
								<linearGradient id="SVGID_9_" gradientUnits="userSpaceOnUse" x1="215.5371" y1="274.2173" x2="215.5371" y2="270.7036">
									<stop  offset="0" style="stop-color:#1A1A1A"/>
									<stop  offset="0.5583" style="stop-color:#0D0D0D"/>
									<stop  offset="1" style="stop-color:#000000"/>
								</linearGradient>
								<path mask="url(#SVGID_8_)" fill="url(#SVGID_9_)" d="M428.453,270.704c-1.904,2.156-4.691,3.514-7.799,3.514H10.42
									c-3.107,0-5.895-1.357-7.799-3.514H428.453z"/>
							</g>
						</mask>
						<linearGradient id="SVGID_10_" gradientUnits="userSpaceOnUse" x1="245.8877" y1="274.2173" x2="245.8877" y2="270.7036">
							<stop  offset="0" style="stop-color:#000000"/>
							<stop  offset="0.0886" style="stop-color:#0C0C0C"/>
							<stop  offset="0.2503" style="stop-color:#2D2D2D"/>
							<stop  offset="0.4673" style="stop-color:#636363"/>
							<stop  offset="0.7313" style="stop-color:#ADADAD"/>
							<stop  offset="1" style="stop-color:#FFFFFF"/>
						</linearGradient>
						<path fill="url(#SVGID_10_)" d="M489.154,270.704c-1.904,2.156-4.691,3.514-7.799,3.514H10.42
							c-3.107,0-5.895-1.357-7.799-3.514H489.154z"/>
					</g>
				</g>
				<g>
					<path fill="#333333" d="M474.16,18.153H17.617c-0.424,0-0.768,0.348-0.768,0.777v215.52h1.17V19.333h455.736V234.45h1.17V18.93
						C474.926,18.5,474.582,18.153,474.16,18.153z"/>
				</g>
			</g>
			<rect y="234.45" opacity="0.3" fill="#FFFFFF" width="491.777" height="1.295"/>
		</g>
		<linearGradient id="SVGID_11_" gradientUnits="userSpaceOnUse" x1="78.1738" y1="-40.8223" x2="413.6007" y2="294.6046">
			<stop  offset="0" style="stop-color:#F2F3F4"/>
			<stop  offset="0.3559" style="stop-color:#EDEEEF"/>
			<stop  offset="0.7827" style="stop-color:#DFE0E0"/>
			<stop  offset="1" style="stop-color:#D5D6D6"/>
		</linearGradient>
		<rect x="18.02" y="19.333" fill="url(#SVGID_11_)" width="455.736" height="215.117"/>
		<defs>
			<filter id="Adobe_OpacityMaskFilter_4_" filterUnits="userSpaceOnUse" x="85.557" y="0.001" width="406.221" height="234.449">
				<feFlood  style="flood-color:white;flood-opacity:1" result="back"/>
				<feBlend  in="SourceGraphic" in2="back" mode="normal"/>
			</filter>
		</defs>
		<mask maskUnits="userSpaceOnUse" x="85.557" y="0.001" width="406.221" height="234.449" id="SVGID_12_">
			<g filter="url(#Adobe_OpacityMaskFilter_4_)">
				<defs>
					
						<filter id="Adobe_OpacityMaskFilter_5_" filterUnits="userSpaceOnUse" x="85.557" y="-23.288" width="345.52" height="257.738">
						<feFlood  style="flood-color:white;flood-opacity:1" result="back"/>
						<feBlend  in="SourceGraphic" in2="back" mode="normal"/>
					</filter>
				</defs>
				<mask maskUnits="userSpaceOnUse" x="85.557" y="-23.288" width="345.52" height="257.738" id="SVGID_12_">
				</mask>
				<linearGradient id="SVGID_13_" gradientUnits="userSpaceOnUse" x1="258.3164" y1="234.4497" x2="258.3164" y2="-23.2871">
					<stop  offset="0" style="stop-color:#000000"/>
					<stop  offset="0.302" style="stop-color:#020202"/>
					<stop  offset="0.4395" style="stop-color:#090909"/>
					<stop  offset="0.5437" style="stop-color:#161616"/>
					<stop  offset="0.6311" style="stop-color:#282828"/>
					<stop  offset="0.7079" style="stop-color:#404040"/>
					<stop  offset="0.7774" style="stop-color:#5D5D5D"/>
					<stop  offset="0.8414" style="stop-color:#808080"/>
					<stop  offset="0.901" style="stop-color:#A8A8A8"/>
					<stop  offset="0.955" style="stop-color:#D4D4D4"/>
					<stop  offset="1" style="stop-color:#FFFFFF"/>
				</linearGradient>
				<path mask="url(#SVGID_12_)" fill="url(#SVGID_13_)" d="M431.076-12.868V234.45H85.557L343.295-23.288h77.361
					C426.41-23.288,431.076-18.623,431.076-12.868z"/>
			</g>
		</mask>
		<linearGradient id="SVGID_14_" gradientUnits="userSpaceOnUse" x1="288.667" y1="234.4497" x2="288.667" y2="0.0015">
			<stop  offset="0" style="stop-color:#EDEDED"/>
			<stop  offset="0.5857" style="stop-color:#EFEFEF"/>
			<stop  offset="0.8519" style="stop-color:#F6F6F6"/>
			<stop  offset="1" style="stop-color:#FFFFFF"/>
		</linearGradient>
		<path opacity="0.2" fill="url(#SVGID_14_)" d="M491.777,10.421V234.45H85.557L343.295,0.001h138.063
			C487.111,0.001,491.777,4.665,491.777,10.421z"/>
	</g>
	
		<image overflow="visible" width="1282" height="603" xlink:href="../포트폴리오/20210314_141417.png"  transform="matrix(0.3567 0 0 0.3567 16.4072 19.3306)">
	</image>
</g>
<g id="Layer_2">
	<g>
		<defs>
			<rect id="SVGID_125_" x="18.02" y="19.331" width="455.732" height="215.119"/>
		</defs>
		<clipPath id="SVGID_15_">
			<use xlink:href="#SVGID_125_"  overflow="visible"/>
		</clipPath>
		<g transform="matrix(1 0 0 1 -7.629395e-006 0)" clip-path="url(#SVGID_15_)">
			
				<image overflow="visible" width="1920" height="4317" xlink:href="lg.png"  transform="matrix(0.3535 0 0 0.3535 -94.208 18.1548)">
			</image>
		</g>
	</g>
</g>
</svg>
