<?xml version="1.0" encoding="utf-8"?>
<!-- Generator: Adobe Illustrator 16.0.0, SVG Export Plug-In . SVG Version: 6.00 Build 0)  -->
<!DOCTYPE svg PUBLIC "-//W3C//DTD SVG 1.1//EN" "http://www.w3.org/Graphics/SVG/1.1/DTD/svg11.dtd">
<svg version="1.1" xmlns="http://www.w3.org/2000/svg" xmlns:xlink="http://www.w3.org/1999/xlink" x="0px" y="0px"
	 width="491.777px" height="334.447px" viewBox="0 0 491.777 334.447" enable-background="new 0 0 491.777 334.447"
	 xml:space="preserve">

<g id="Layer_2">
	<path fill="#231F20" opacity=".5" d="M150.568,332.186c0-0.594,0.242-1.191,0.768-1.643h-0.768V332.186z"/>
	<path fill="#231F20" d="M481.357-0.002H10.42C4.666-0.002,0,4.662,0,10.418v0.371v223.66v1.295v27.68v0.375v0.002
		c0,0.347,0.019,0.688,0.052,1.026c0.01,0.102,0.029,0.2,0.043,0.301c0.029,0.235,0.061,0.47,0.106,0.699
		c0.023,0.119,0.056,0.234,0.083,0.352c0.049,0.207,0.098,0.413,0.158,0.615c0.037,0.123,0.08,0.242,0.122,0.363
		c0.064,0.19,0.131,0.379,0.206,0.564c0.051,0.123,0.105,0.243,0.16,0.363c0.08,0.176,0.161,0.349,0.25,0.519
		c0.064,0.123,0.132,0.243,0.201,0.363c0.09,0.157,0.184,0.313,0.282,0.465c0.08,0.124,0.163,0.247,0.248,0.367
		c0.097,0.137,0.196,0.27,0.3,0.401c0.1,0.127,0.2,0.253,0.306,0.375c0.036,0.042,0.067,0.087,0.104,0.128
		c0.054,0.062,0.115,0.114,0.171,0.175c0.145,0.154,0.291,0.307,0.443,0.452c0.11,0.105,0.224,0.206,0.338,0.308
		c0.141,0.123,0.285,0.242,0.433,0.357c0.132,0.104,0.267,0.205,0.403,0.303c0.142,0.1,0.286,0.195,0.433,0.288
		c0.151,0.097,0.302,0.19,0.458,0.278c0.145,0.082,0.292,0.156,0.44,0.231c0.165,0.083,0.33,0.166,0.501,0.241
		c0.149,0.065,0.303,0.122,0.456,0.182c0.176,0.066,0.351,0.136,0.531,0.193c0.157,0.051,0.32,0.091,0.481,0.135
		c0.183,0.049,0.363,0.102,0.551,0.141c0.169,0.036,0.343,0.059,0.515,0.086c0.185,0.029,0.368,0.064,0.556,0.084
		c0.196,0.021,0.396,0.023,0.596,0.033c0.165,0.008,0.326,0.026,0.493,0.026h198.612l-3.761,38.625
		c-0.277,2.85-1.797,5.441-4.162,7.102l-12.584,8.822c-0.655,0.459-0.948,1.122-0.954,1.779h-0.003v0.049c0,0.005,0,0.011,0,0.016
		v1.641c0.035,1.121,0.9,2.195,2.268,2.195h125.402c0.855,0,1.515-0.421,1.897-1.01c0.001-0.002,0.002-0.003,0.002-0.005
		c0.228-0.352,0.357-0.763,0.37-1.181v-1.642c0-0.004,0-0.009,0-0.014v-0.05h-0.001v-0.002h-0.002
		c-0.006-0.657-0.299-1.319-0.954-1.777l-12.584-8.822c-2.367-1.66-3.885-4.252-4.162-7.102l-3.761-38.625h185.312
		c0.158,0,0.312-0.019,0.468-0.025c0.209-0.009,0.418-0.013,0.623-0.034c0.18-0.019,0.354-0.053,0.529-0.08
		c0.182-0.029,0.365-0.053,0.545-0.09c0.177-0.037,0.348-0.088,0.521-0.135c0.172-0.045,0.345-0.088,0.514-0.143
		c0.17-0.055,0.334-0.119,0.5-0.183c0.164-0.063,0.329-0.124,0.49-0.195c0.159-0.069,0.313-0.147,0.468-0.226
		c0.161-0.08,0.32-0.161,0.477-0.25c0.144-0.082,0.284-0.169,0.423-0.257c0.16-0.101,0.317-0.205,0.471-0.314
		c0.125-0.089,0.247-0.181,0.368-0.274c0.161-0.126,0.318-0.257,0.473-0.393c0.102-0.089,0.202-0.179,0.3-0.271
		c0.168-0.16,0.329-0.326,0.486-0.497c0.047-0.05,0.098-0.095,0.144-0.146c0.03-0.034,0.058-0.072,0.087-0.107
		c0.12-0.139,0.234-0.281,0.347-0.426c0.088-0.113,0.174-0.228,0.257-0.345c0.1-0.139,0.194-0.279,0.286-0.422
		c0.085-0.132,0.165-0.266,0.243-0.401c0.082-0.14,0.161-0.281,0.236-0.426c0.075-0.146,0.145-0.295,0.214-0.444
		c0.065-0.145,0.132-0.289,0.192-0.437c0.063-0.155,0.117-0.314,0.173-0.474c0.053-0.15,0.106-0.3,0.152-0.453
		c0.048-0.162,0.087-0.33,0.128-0.496c0.037-0.156,0.079-0.31,0.11-0.469c0.033-0.17,0.054-0.343,0.079-0.516
		c0.022-0.16,0.052-0.319,0.067-0.482c0.017-0.18,0.02-0.364,0.027-0.547c0.007-0.153,0.023-0.305,0.023-0.46v-0.375v-27.68v-1.295
		V10.789V10.42v-0.002C491.777,4.662,487.111-0.002,481.357-0.002z"/>
	
	</g>
</g>
</svg>
