<?xml version="1.0" encoding="utf-8"?>
<!-- Generator: Adobe Illustrator 16.0.0, SVG Export Plug-In . SVG Version: 6.00 Build 0)  -->
<!DOCTYPE svg PUBLIC "-//W3C//DTD SVG 1.1//EN" "http://www.w3.org/Graphics/SVG/1.1/DTD/svg11.dtd">
<svg version="1.1" xmlns="http://www.w3.org/2000/svg" xmlns:xlink="http://www.w3.org/1999/xlink" x="0px" y="0px"
	 width="491.777px" height="334.447px" viewBox="0 0 491.777 334.447" enable-background="new 0 0 491.777 334.447"
	 xml:space="preserve">

<g id="Layer_2">
	<path fill="#231F20" d="M150.568,332.186c0-0.594,0.242-1.191,0.768-1.643h-0.768V332.186z"/>
	<path fill="#231F20" opacity=".5" d="M481.357-0.002H10.42C4.666-0.002,0,4.662,0,10.418v0.371v223.66v1.295v27.68v0.375v0.002
		c0,0.347,0.019,0.689,0.052,1.027c0.011,0.102,0.029,0.199,0.042,0.3c0.03,0.235,0.062,0.47,0.107,0.7
		c0.023,0.118,0.056,0.233,0.083,0.352c0.048,0.206,0.098,0.412,0.158,0.614c0.037,0.123,0.081,0.242,0.122,0.363
		c0.064,0.19,0.131,0.38,0.207,0.564c0.05,0.123,0.104,0.243,0.159,0.363c0.079,0.175,0.161,0.349,0.25,0.519
		c0.064,0.123,0.132,0.243,0.201,0.363c0.09,0.158,0.184,0.313,0.282,0.465c0.08,0.125,0.162,0.246,0.248,0.367
		c0.097,0.137,0.197,0.27,0.3,0.401c0.1,0.127,0.2,0.253,0.306,0.375c0.035,0.042,0.067,0.087,0.104,0.128
		c0.054,0.061,0.115,0.115,0.171,0.174c0.144,0.155,0.29,0.308,0.443,0.453c0.11,0.105,0.224,0.207,0.338,0.307
		c0.142,0.124,0.285,0.243,0.433,0.359c0.132,0.104,0.267,0.204,0.403,0.302c0.142,0.1,0.286,0.195,0.433,0.288
		c0.15,0.096,0.302,0.189,0.458,0.278c0.144,0.081,0.292,0.156,0.44,0.231c0.166,0.084,0.33,0.166,0.501,0.241
		c0.149,0.065,0.303,0.122,0.456,0.181c0.176,0.068,0.351,0.137,0.531,0.195c0.158,0.051,0.32,0.09,0.481,0.133
		c0.183,0.05,0.364,0.103,0.551,0.143c0.169,0.035,0.343,0.057,0.515,0.084c0.186,0.029,0.368,0.065,0.557,0.085
		c0.195,0.021,0.396,0.023,0.595,0.032c0.165,0.008,0.326,0.027,0.493,0.027h198.612l-3.761,38.625
		c-0.277,2.85-1.797,5.441-4.162,7.102l-12.584,8.822c-0.656,0.459-0.948,1.122-0.954,1.779h-0.003v0.049c0,0.006,0,0.011,0,0.016
		v1.641c0.035,1.121,0.9,2.195,2.268,2.195h125.402c0.855,0,1.515-0.421,1.897-1.01c0.001-0.002,0.001-0.003,0.003-0.005
		c0.227-0.352,0.355-0.763,0.369-1.181v-1.642c0-0.005,0-0.009,0-0.013v-0.051h-0.001v-0.002h-0.002
		c-0.006-0.657-0.299-1.318-0.954-1.777l-12.584-8.822c-2.367-1.66-3.885-4.252-4.162-7.102l-3.761-38.625h185.312
		c0.158,0,0.312-0.019,0.468-0.025c0.209-0.01,0.419-0.013,0.624-0.034c0.179-0.019,0.352-0.053,0.528-0.081
		c0.182-0.027,0.366-0.051,0.544-0.089s0.349-0.088,0.522-0.135c0.172-0.046,0.345-0.088,0.513-0.143
		c0.17-0.055,0.335-0.12,0.501-0.183c0.165-0.063,0.329-0.125,0.49-0.195c0.159-0.07,0.313-0.147,0.468-0.225
		c0.16-0.081,0.32-0.162,0.477-0.251c0.145-0.082,0.283-0.169,0.424-0.257c0.159-0.102,0.316-0.205,0.47-0.314
		c0.125-0.089,0.247-0.18,0.368-0.274c0.162-0.126,0.318-0.257,0.473-0.392c0.102-0.09,0.201-0.18,0.299-0.272
		c0.169-0.16,0.33-0.326,0.487-0.497c0.046-0.051,0.099-0.096,0.144-0.146c0.031-0.034,0.057-0.072,0.088-0.107
		c0.119-0.139,0.233-0.281,0.346-0.426c0.088-0.113,0.174-0.228,0.258-0.344c0.099-0.139,0.193-0.279,0.285-0.424
		c0.084-0.131,0.165-0.265,0.244-0.4c0.081-0.141,0.16-0.281,0.234-0.426c0.076-0.146,0.146-0.295,0.215-0.444
		c0.066-0.145,0.132-0.288,0.191-0.437c0.063-0.156,0.119-0.314,0.174-0.475c0.053-0.149,0.106-0.299,0.152-0.451
		c0.049-0.164,0.087-0.33,0.127-0.497c0.039-0.155,0.08-0.31,0.111-0.468c0.033-0.17,0.054-0.344,0.078-0.517
		c0.023-0.161,0.053-0.319,0.068-0.481c0.018-0.181,0.02-0.365,0.027-0.548c0.007-0.153,0.023-0.305,0.023-0.46v-0.375v-27.68
		v-1.295V10.789V10.42v-0.002C491.777,4.662,487.111-0.002,481.357-0.002z"/>
	
	</g>
</g>
</svg>
